<svg xmlns="http://www.w3.org/2000/svg" xmlns:xlink="http://www.w3.org/1999/xlink" width="500" zoomAndPan="magnify" viewBox="0 0 375 374.999991" height="500" preserveAspectRatio="xMidYMid meet" version="1.0"><defs><g/><clipPath id="8d77510ab9"><path d="M 0 134.972656 L 78 134.972656 L 78 197 L 0 197 Z M 0 134.972656 " clip-rule="nonzero"/></clipPath><clipPath id="bfe92f129d"><path d="M 20 200 L 58 200 L 58 206.222656 L 20 206.222656 Z M 20 200 " clip-rule="nonzero"/></clipPath></defs><path fill="#f5929f" d="M 6.875 135.988281 L 71.125 135.988281 C 71.511719 135.988281 71.894531 136.027344 72.269531 136.101562 C 72.648438 136.175781 73.015625 136.289062 73.371094 136.433594 C 73.726562 136.582031 74.066406 136.761719 74.386719 136.976562 C 74.707031 137.191406 75.003906 137.433594 75.277344 137.707031 C 75.546875 137.976562 75.792969 138.273438 76.007812 138.59375 C 76.21875 138.914062 76.402344 139.253906 76.546875 139.609375 C 76.695312 139.964844 76.808594 140.328125 76.882812 140.707031 C 76.957031 141.085938 76.996094 141.464844 76.996094 141.851562 L 76.996094 189.769531 C 76.996094 190.15625 76.957031 190.539062 76.882812 190.914062 C 76.808594 191.292969 76.695312 191.660156 76.546875 192.015625 C 76.402344 192.371094 76.21875 192.707031 76.007812 193.027344 C 75.792969 193.347656 75.546875 193.644531 75.277344 193.914062 C 75.003906 194.1875 74.707031 194.429688 74.386719 194.644531 C 74.066406 194.859375 73.726562 195.039062 73.371094 195.1875 C 73.015625 195.332031 72.648438 195.445312 72.269531 195.519531 C 71.894531 195.59375 71.511719 195.632812 71.125 195.632812 L 6.875 195.632812 C 6.488281 195.632812 6.105469 195.59375 5.730469 195.519531 C 5.351562 195.445312 4.984375 195.332031 4.628906 195.1875 C 4.273438 195.039062 3.933594 194.859375 3.613281 194.644531 C 3.292969 194.429688 2.996094 194.1875 2.722656 193.914062 C 2.453125 193.644531 2.207031 193.347656 1.992188 193.027344 C 1.78125 192.707031 1.597656 192.371094 1.453125 192.015625 C 1.304688 191.660156 1.191406 191.292969 1.117188 190.914062 C 1.042969 190.539062 1.003906 190.15625 1.003906 189.769531 L 1.003906 141.851562 C 1.003906 141.464844 1.042969 141.085938 1.117188 140.707031 C 1.191406 140.328125 1.304688 139.964844 1.453125 139.609375 C 1.597656 139.253906 1.78125 138.914062 1.992188 138.59375 C 2.207031 138.273438 2.453125 137.976562 2.722656 137.707031 C 2.996094 137.433594 3.292969 137.191406 3.613281 136.976562 C 3.933594 136.761719 4.273438 136.582031 4.628906 136.433594 C 4.984375 136.289062 5.351562 136.175781 5.730469 136.101562 C 6.105469 136.027344 6.488281 135.988281 6.875 135.988281 Z M 6.875 135.988281 " fill-opacity="1" fill-rule="nonzero"/><g clip-path="url(#8d77510ab9)"><path fill="#231f20" d="M 71.125 196.636719 L 6.875 196.636719 C 6.421875 196.636719 5.976562 196.589844 5.535156 196.503906 C 5.089844 196.414062 4.660156 196.285156 4.246094 196.113281 C 3.828125 195.9375 3.433594 195.726562 3.058594 195.476562 C 2.683594 195.226562 2.335938 194.941406 2.015625 194.625 C 1.695312 194.304688 1.410156 193.957031 1.160156 193.582031 C 0.910156 193.207031 0.699219 192.8125 0.523438 192.398438 C 0.351562 191.980469 0.222656 191.550781 0.132812 191.109375 C 0.046875 190.667969 0 190.222656 0 189.769531 L 0 141.851562 C 0 141.398438 0.046875 140.953125 0.132812 140.511719 C 0.222656 140.070312 0.351562 139.640625 0.523438 139.226562 C 0.699219 138.808594 0.910156 138.414062 1.160156 138.039062 C 1.410156 137.664062 1.695312 137.316406 2.015625 137 C 2.335938 136.679688 2.683594 136.394531 3.058594 136.144531 C 3.433594 135.894531 3.828125 135.683594 4.246094 135.511719 C 4.660156 135.335938 5.089844 135.207031 5.535156 135.117188 C 5.976562 135.03125 6.421875 134.984375 6.875 134.984375 L 71.125 134.984375 C 71.578125 134.984375 72.023438 135.03125 72.46875 135.117188 C 72.910156 135.207031 73.339844 135.335938 73.753906 135.511719 C 74.171875 135.683594 74.570312 135.894531 74.945312 136.144531 C 75.320312 136.394531 75.664062 136.679688 75.984375 137 C 76.304688 137.316406 76.589844 137.664062 76.839844 138.039062 C 77.089844 138.414062 77.300781 138.808594 77.476562 139.226562 C 77.648438 139.640625 77.777344 140.070312 77.867188 140.511719 C 77.957031 140.953125 78 141.398438 78 141.851562 L 78 189.769531 C 78 190.222656 77.957031 190.667969 77.867188 191.109375 C 77.777344 191.550781 77.648438 191.980469 77.476562 192.398438 C 77.300781 192.8125 77.089844 193.207031 76.839844 193.582031 C 76.589844 193.957031 76.304688 194.304688 75.984375 194.625 C 75.664062 194.941406 75.320312 195.226562 74.945312 195.476562 C 74.570312 195.726562 74.171875 195.9375 73.753906 196.113281 C 73.339844 196.285156 72.910156 196.414062 72.46875 196.503906 C 72.023438 196.589844 71.578125 196.636719 71.125 196.636719 Z M 6.875 136.992188 C 6.554688 136.992188 6.238281 137.023438 5.925781 137.085938 C 5.613281 137.148438 5.308594 137.242188 5.011719 137.363281 C 4.71875 137.488281 4.4375 137.636719 4.171875 137.8125 C 3.90625 137.992188 3.660156 138.191406 3.4375 138.417969 C 3.210938 138.644531 3.007812 138.886719 2.832031 139.152344 C 2.652344 139.417969 2.503906 139.699219 2.382812 139.992188 C 2.257812 140.289062 2.167969 140.589844 2.105469 140.902344 C 2.042969 141.214844 2.011719 141.53125 2.011719 141.851562 L 2.011719 189.769531 C 2.011719 190.089844 2.042969 190.40625 2.105469 190.71875 C 2.167969 191.03125 2.257812 191.335938 2.382812 191.628906 C 2.503906 191.925781 2.652344 192.203125 2.832031 192.46875 C 3.007812 192.734375 3.210938 192.980469 3.4375 193.203125 C 3.660156 193.429688 3.90625 193.632812 4.171875 193.808594 C 4.4375 193.984375 4.71875 194.136719 5.011719 194.257812 C 5.308594 194.378906 5.613281 194.472656 5.925781 194.535156 C 6.238281 194.597656 6.554688 194.628906 6.875 194.628906 L 71.125 194.628906 C 71.445312 194.628906 71.761719 194.597656 72.074219 194.535156 C 72.386719 194.472656 72.691406 194.378906 72.988281 194.257812 C 73.28125 194.136719 73.5625 193.984375 73.828125 193.808594 C 74.09375 193.632812 74.339844 193.429688 74.5625 193.203125 C 74.789062 192.980469 74.992188 192.734375 75.167969 192.46875 C 75.347656 192.203125 75.496094 191.925781 75.617188 191.628906 C 75.742188 191.335938 75.832031 191.03125 75.894531 190.71875 C 75.957031 190.40625 75.988281 190.089844 75.992188 189.769531 L 75.992188 141.851562 C 75.988281 141.53125 75.957031 141.214844 75.894531 140.902344 C 75.832031 140.589844 75.742188 140.289062 75.617188 139.992188 C 75.496094 139.699219 75.347656 139.417969 75.167969 139.152344 C 74.992188 138.886719 74.789062 138.644531 74.5625 138.417969 C 74.339844 138.191406 74.09375 137.992188 73.828125 137.8125 C 73.5625 137.636719 73.28125 137.488281 72.988281 137.363281 C 72.691406 137.242188 72.386719 137.148438 72.074219 137.085938 C 71.761719 137.023438 71.445312 136.992188 71.125 136.992188 Z M 6.875 136.992188 " fill-opacity="1" fill-rule="nonzero"/></g><path fill="#c4e5f2" d="M 6.976562 139.851562 L 70.816406 139.851562 C 71.0625 139.851562 71.300781 139.898438 71.527344 139.992188 C 71.753906 140.085938 71.953125 140.21875 72.128906 140.394531 C 72.300781 140.566406 72.433594 140.769531 72.53125 140.996094 C 72.625 141.222656 72.671875 141.457031 72.671875 141.703125 L 72.671875 189.828125 C 72.671875 190.074219 72.625 190.308594 72.53125 190.539062 C 72.433594 190.765625 72.300781 190.964844 72.128906 191.136719 C 71.953125 191.3125 71.753906 191.445312 71.527344 191.539062 C 71.300781 191.632812 71.0625 191.679688 70.816406 191.679688 L 6.976562 191.679688 C 6.730469 191.679688 6.496094 191.632812 6.269531 191.539062 C 6.039062 191.445312 5.839844 191.3125 5.667969 191.136719 C 5.492188 190.964844 5.359375 190.765625 5.265625 190.539062 C 5.171875 190.308594 5.125 190.074219 5.125 189.828125 L 5.125 141.703125 C 5.125 141.457031 5.171875 141.222656 5.265625 140.996094 C 5.359375 140.769531 5.492188 140.566406 5.667969 140.394531 C 5.839844 140.21875 6.039062 140.085938 6.269531 139.992188 C 6.496094 139.898438 6.730469 139.851562 6.976562 139.851562 Z M 6.976562 139.851562 " fill-opacity="1" fill-rule="nonzero"/><path fill="#91d2e7" d="M 6.128906 139.851562 L 17.890625 139.851562 L 17.890625 191.519531 L 6.128906 191.519531 Z M 6.128906 139.851562 " fill-opacity="1" fill-rule="nonzero"/><path fill="#231f20" d="M 70.816406 192.683594 L 6.976562 192.683594 C 6.597656 192.683594 6.234375 192.609375 5.882812 192.464844 C 5.535156 192.320312 5.226562 192.113281 4.957031 191.847656 C 4.6875 191.578125 4.480469 191.269531 4.335938 190.921875 C 4.191406 190.570312 4.117188 190.207031 4.117188 189.828125 L 4.117188 141.703125 C 4.117188 141.324219 4.191406 140.960938 4.335938 140.609375 C 4.480469 140.261719 4.6875 139.953125 4.957031 139.683594 C 5.226562 139.417969 5.535156 139.210938 5.882812 139.066406 C 6.234375 138.921875 6.597656 138.847656 6.976562 138.847656 L 70.816406 138.847656 C 71.195312 138.847656 71.5625 138.921875 71.910156 139.066406 C 72.261719 139.210938 72.570312 139.417969 72.835938 139.683594 C 73.105469 139.953125 73.3125 140.261719 73.457031 140.609375 C 73.601562 140.960938 73.675781 141.324219 73.675781 141.703125 L 73.675781 189.828125 C 73.675781 190.207031 73.601562 190.570312 73.457031 190.921875 C 73.3125 191.269531 73.105469 191.578125 72.835938 191.847656 C 72.570312 192.113281 72.261719 192.320312 71.910156 192.464844 C 71.558594 192.609375 71.195312 192.683594 70.816406 192.683594 Z M 6.976562 140.855469 C 6.742188 140.855469 6.542969 140.9375 6.378906 141.105469 C 6.210938 141.269531 6.128906 141.46875 6.128906 141.703125 L 6.128906 189.828125 C 6.128906 190.0625 6.210938 190.261719 6.378906 190.425781 C 6.542969 190.59375 6.742188 190.675781 6.976562 190.675781 L 70.816406 190.675781 C 71.050781 190.675781 71.25 190.59375 71.417969 190.425781 C 71.582031 190.261719 71.664062 190.0625 71.664062 189.828125 L 71.664062 141.703125 C 71.664062 141.46875 71.582031 141.269531 71.417969 141.105469 C 71.25 140.9375 71.050781 140.855469 70.816406 140.855469 Z M 6.976562 140.855469 " fill-opacity="1" fill-rule="nonzero"/><path fill="#231f20" d="M 17.679688 164.757812 C 17.546875 164.757812 17.417969 164.734375 17.292969 164.683594 C 17.171875 164.628906 17.0625 164.558594 16.96875 164.464844 C 16.875 164.371094 16.800781 164.261719 16.75 164.136719 C 16.699219 164.015625 16.675781 163.886719 16.675781 163.753906 L 16.675781 139.851562 C 16.675781 139.71875 16.699219 139.589844 16.75 139.46875 C 16.800781 139.34375 16.875 139.234375 16.96875 139.140625 C 17.0625 139.046875 17.171875 138.976562 17.292969 138.925781 C 17.417969 138.875 17.546875 138.847656 17.679688 138.847656 C 17.8125 138.847656 17.941406 138.875 18.0625 138.925781 C 18.1875 138.976562 18.296875 139.046875 18.390625 139.140625 C 18.484375 139.234375 18.558594 139.34375 18.609375 139.46875 C 18.660156 139.589844 18.683594 139.71875 18.683594 139.851562 L 18.683594 163.753906 C 18.683594 163.886719 18.660156 164.015625 18.609375 164.136719 C 18.558594 164.261719 18.484375 164.371094 18.390625 164.464844 C 18.296875 164.558594 18.1875 164.628906 18.0625 164.683594 C 17.941406 164.734375 17.8125 164.757812 17.679688 164.757812 Z M 17.679688 164.757812 " fill-opacity="1" fill-rule="nonzero"/><path fill="#231f20" d="M 17.679688 192.558594 C 17.546875 192.558594 17.417969 192.53125 17.292969 192.480469 C 17.171875 192.429688 17.0625 192.359375 16.96875 192.265625 C 16.875 192.167969 16.800781 192.0625 16.75 191.9375 C 16.699219 191.816406 16.675781 191.6875 16.675781 191.554688 L 16.675781 171.570312 C 16.675781 171.4375 16.699219 171.308594 16.75 171.183594 C 16.800781 171.0625 16.875 170.953125 16.96875 170.859375 C 17.0625 170.765625 17.171875 170.691406 17.292969 170.640625 C 17.417969 170.589844 17.546875 170.566406 17.679688 170.566406 C 17.8125 170.566406 17.941406 170.589844 18.0625 170.640625 C 18.1875 170.691406 18.296875 170.765625 18.390625 170.859375 C 18.484375 170.953125 18.558594 171.0625 18.609375 171.183594 C 18.660156 171.308594 18.683594 171.4375 18.683594 171.570312 L 18.683594 191.554688 C 18.683594 191.6875 18.660156 191.816406 18.609375 191.9375 C 18.558594 192.0625 18.484375 192.167969 18.390625 192.265625 C 18.296875 192.359375 18.1875 192.429688 18.0625 192.480469 C 17.941406 192.53125 17.8125 192.558594 17.679688 192.558594 Z M 17.679688 192.558594 " fill-opacity="1" fill-rule="nonzero"/><path fill="#231f20" d="M 11.714844 178.765625 C 11.582031 178.765625 11.453125 178.742188 11.328125 178.691406 C 11.207031 178.640625 11.097656 178.566406 11.003906 178.472656 C 10.910156 178.378906 10.835938 178.269531 10.785156 178.148438 C 10.734375 178.023438 10.707031 177.894531 10.707031 177.761719 L 10.707031 153.859375 C 10.707031 153.726562 10.734375 153.597656 10.785156 153.476562 C 10.835938 153.351562 10.910156 153.246094 11.003906 153.148438 C 11.097656 153.054688 11.207031 152.984375 11.328125 152.933594 C 11.453125 152.882812 11.582031 152.855469 11.714844 152.855469 C 11.847656 152.855469 11.976562 152.882812 12.097656 152.933594 C 12.222656 152.984375 12.328125 153.054688 12.425781 153.148438 C 12.519531 153.246094 12.589844 153.351562 12.640625 153.476562 C 12.691406 153.597656 12.71875 153.726562 12.71875 153.859375 L 12.71875 177.761719 C 12.71875 177.894531 12.691406 178.023438 12.640625 178.148438 C 12.589844 178.269531 12.519531 178.378906 12.425781 178.472656 C 12.328125 178.566406 12.222656 178.640625 12.097656 178.691406 C 11.976562 178.742188 11.847656 178.765625 11.714844 178.765625 Z M 11.714844 178.765625 " fill-opacity="1" fill-rule="nonzero"/><path fill="#f8f5bb" d="M 55.742188 166.179688 C 55.742188 166.730469 55.714844 167.28125 55.660156 167.828125 C 55.605469 168.375 55.523438 168.921875 55.417969 169.460938 C 55.308594 170 55.175781 170.535156 55.015625 171.0625 C 54.855469 171.589844 54.671875 172.109375 54.457031 172.617188 C 54.246094 173.125 54.011719 173.625 53.753906 174.109375 C 53.492188 174.59375 53.207031 175.066406 52.902344 175.527344 C 52.597656 175.984375 52.269531 176.425781 51.917969 176.851562 C 51.566406 177.277344 51.199219 177.683594 50.808594 178.074219 C 50.417969 178.464844 50.007812 178.832031 49.582031 179.183594 C 49.15625 179.53125 48.714844 179.859375 48.253906 180.167969 C 47.796875 180.472656 47.324219 180.753906 46.835938 181.015625 C 46.351562 181.273438 45.851562 181.511719 45.34375 181.722656 C 44.832031 181.933594 44.316406 182.117188 43.785156 182.277344 C 43.257812 182.4375 42.722656 182.570312 42.183594 182.679688 C 41.640625 182.785156 41.097656 182.867188 40.546875 182.921875 C 40 182.976562 39.449219 183 38.898438 183 C 38.34375 183 37.796875 182.976562 37.246094 182.921875 C 36.695312 182.867188 36.152344 182.785156 35.609375 182.679688 C 35.070312 182.570312 34.535156 182.4375 34.007812 182.277344 C 33.480469 182.117188 32.960938 181.933594 32.449219 181.722656 C 31.941406 181.511719 31.445312 181.273438 30.957031 181.015625 C 30.46875 180.753906 29.996094 180.472656 29.539062 180.167969 C 29.082031 179.859375 28.636719 179.53125 28.210938 179.183594 C 27.785156 178.832031 27.375 178.464844 26.988281 178.074219 C 26.597656 177.683594 26.226562 177.277344 25.875 176.851562 C 25.527344 176.425781 25.199219 175.984375 24.890625 175.527344 C 24.585938 175.066406 24.300781 174.59375 24.042969 174.109375 C 23.78125 173.625 23.546875 173.125 23.335938 172.617188 C 23.125 172.109375 22.9375 171.589844 22.777344 171.0625 C 22.617188 170.535156 22.484375 170 22.375 169.460938 C 22.269531 168.921875 22.1875 168.375 22.132812 167.828125 C 22.082031 167.28125 22.054688 166.730469 22.054688 166.179688 C 22.054688 165.628906 22.082031 165.078125 22.132812 164.53125 C 22.1875 163.984375 22.269531 163.4375 22.375 162.898438 C 22.484375 162.359375 22.617188 161.824219 22.777344 161.296875 C 22.9375 160.769531 23.125 160.25 23.335938 159.742188 C 23.546875 159.234375 23.78125 158.734375 24.042969 158.25 C 24.300781 157.765625 24.585938 157.292969 24.890625 156.832031 C 25.199219 156.375 25.527344 155.933594 25.875 155.507812 C 26.226562 155.082031 26.597656 154.675781 26.988281 154.285156 C 27.375 153.894531 27.785156 153.527344 28.210938 153.175781 C 28.636719 152.828125 29.082031 152.5 29.539062 152.191406 C 29.996094 151.886719 30.46875 151.605469 30.957031 151.34375 C 31.445312 151.085938 31.941406 150.847656 32.449219 150.636719 C 32.960938 150.425781 33.480469 150.242188 34.007812 150.082031 C 34.535156 149.921875 35.070312 149.789062 35.609375 149.679688 C 36.152344 149.574219 36.695312 149.492188 37.246094 149.4375 C 37.796875 149.382812 38.34375 149.359375 38.898438 149.359375 C 39.449219 149.359375 40 149.382812 40.546875 149.4375 C 41.097656 149.492188 41.640625 149.574219 42.183594 149.679688 C 42.722656 149.789062 43.257812 149.921875 43.785156 150.082031 C 44.316406 150.242188 44.832031 150.425781 45.34375 150.636719 C 45.851562 150.847656 46.351562 151.085938 46.835938 151.34375 C 47.324219 151.605469 47.796875 151.886719 48.253906 152.191406 C 48.714844 152.5 49.15625 152.828125 49.582031 153.175781 C 50.007812 153.527344 50.417969 153.894531 50.808594 154.285156 C 51.199219 154.675781 51.566406 155.082031 51.917969 155.507812 C 52.269531 155.933594 52.597656 156.375 52.902344 156.832031 C 53.207031 157.292969 53.492188 157.765625 53.753906 158.25 C 54.011719 158.734375 54.246094 159.234375 54.457031 159.742188 C 54.671875 160.25 54.855469 160.769531 55.015625 161.296875 C 55.175781 161.824219 55.308594 162.359375 55.417969 162.898438 C 55.523438 163.4375 55.605469 163.984375 55.660156 164.53125 C 55.714844 165.078125 55.742188 165.628906 55.742188 166.179688 Z M 55.742188 166.179688 " fill-opacity="1" fill-rule="nonzero"/><path fill="#c4e5f2" d="M 27.179688 164.269531 C 28.457031 155.863281 36.378906 149.957031 45.460938 150.191406 C 44.890625 149.949219 44.308594 149.742188 43.71875 149.566406 C 43.125 149.386719 42.523438 149.242188 41.914062 149.132812 C 41.304688 149.023438 40.691406 148.945312 40.074219 148.902344 C 39.457031 148.859375 38.839844 148.851562 38.222656 148.875 C 37.605469 148.898438 36.988281 148.957031 36.378906 149.050781 C 35.765625 149.144531 35.160156 149.269531 34.5625 149.425781 C 33.964844 149.585938 33.378906 149.777344 32.800781 150 C 32.222656 150.226562 31.660156 150.480469 31.113281 150.765625 C 30.5625 151.050781 30.03125 151.367188 29.519531 151.710938 C 29.003906 152.054688 28.511719 152.425781 28.039062 152.824219 C 27.566406 153.222656 27.113281 153.644531 26.6875 154.09375 C 26.261719 154.539062 25.863281 155.011719 25.488281 155.503906 C 25.113281 155.996094 24.765625 156.503906 24.449219 157.035156 C 24.128906 157.566406 23.84375 158.109375 23.585938 158.671875 C 23.328125 159.234375 23.101562 159.808594 22.90625 160.394531 C 22.710938 160.980469 22.550781 161.578125 22.421875 162.183594 C 22.292969 162.785156 22.195312 163.394531 22.136719 164.011719 C 22.074219 164.625 22.046875 165.242188 22.050781 165.859375 C 22.058594 166.476562 22.097656 167.09375 22.171875 167.707031 C 22.246094 168.320312 22.355469 168.929688 22.496094 169.53125 C 22.636719 170.132812 22.8125 170.722656 23.019531 171.304688 C 23.226562 171.886719 23.464844 172.457031 23.734375 173.015625 C 24.003906 173.570312 24.300781 174.109375 24.632812 174.632812 C 24.960938 175.15625 25.316406 175.660156 25.703125 176.144531 C 26.085938 176.628906 26.496094 177.089844 26.933594 177.527344 C 27.367188 177.96875 27.828125 178.382812 28.308594 178.769531 C 28.789062 179.15625 29.289062 179.519531 29.8125 179.851562 C 30.332031 180.183594 30.871094 180.488281 31.425781 180.761719 C 31.980469 181.039062 32.546875 181.28125 33.128906 181.492188 C 33.710938 181.703125 34.300781 181.882812 34.902344 182.027344 C 35.503906 182.175781 36.109375 182.289062 36.722656 182.367188 C 37.339844 182.449219 37.953125 182.492188 38.574219 182.503906 C 30.890625 179.492188 25.992188 172.058594 27.179688 164.269531 Z M 27.179688 164.269531 " fill-opacity="1" fill-rule="nonzero"/><path fill="#231f20" d="M 38.898438 184.003906 C 29.054688 184.003906 21.046875 176.007812 21.046875 166.179688 C 21.046875 156.351562 29.054688 148.355469 38.898438 148.355469 C 48.738281 148.355469 56.746094 156.351562 56.746094 166.179688 C 56.746094 176.007812 48.738281 184.003906 38.898438 184.003906 Z M 38.898438 150.359375 C 38.378906 150.359375 37.859375 150.386719 37.34375 150.4375 C 36.828125 150.488281 36.316406 150.5625 35.808594 150.664062 C 35.296875 150.765625 34.796875 150.890625 34.300781 151.042969 C 33.804688 151.191406 33.316406 151.367188 32.835938 151.566406 C 32.355469 151.761719 31.886719 151.984375 31.429688 152.230469 C 30.972656 152.472656 30.527344 152.738281 30.097656 153.027344 C 29.664062 153.316406 29.25 153.625 28.847656 153.953125 C 28.449219 154.28125 28.0625 154.628906 27.695312 154.996094 C 27.332031 155.359375 26.980469 155.746094 26.652344 156.144531 C 26.324219 156.546875 26.015625 156.960938 25.726562 157.390625 C 25.4375 157.820312 25.171875 158.265625 24.929688 158.722656 C 24.683594 159.179688 24.460938 159.648438 24.261719 160.125 C 24.066406 160.605469 23.890625 161.09375 23.738281 161.589844 C 23.589844 162.082031 23.464844 162.585938 23.363281 163.09375 C 23.261719 163.601562 23.183594 164.113281 23.132812 164.628906 C 23.082031 165.144531 23.058594 165.660156 23.058594 166.179688 C 23.058594 166.699219 23.082031 167.214844 23.132812 167.730469 C 23.183594 168.246094 23.261719 168.757812 23.363281 169.265625 C 23.464844 169.773438 23.589844 170.277344 23.738281 170.773438 C 23.890625 171.265625 24.066406 171.753906 24.261719 172.234375 C 24.460938 172.710938 24.683594 173.179688 24.929688 173.636719 C 25.171875 174.09375 25.4375 174.539062 25.726562 174.96875 C 26.015625 175.398438 26.324219 175.8125 26.652344 176.214844 C 26.980469 176.617188 27.332031 177 27.695312 177.363281 C 28.0625 177.730469 28.449219 178.078125 28.847656 178.40625 C 29.25 178.734375 29.664062 179.042969 30.097656 179.332031 C 30.527344 179.621094 30.972656 179.886719 31.429688 180.128906 C 31.886719 180.375 32.355469 180.597656 32.835938 180.792969 C 33.316406 180.992188 33.800781 181.167969 34.300781 181.316406 C 34.796875 181.46875 35.296875 181.59375 35.808594 181.695312 C 36.316406 181.796875 36.828125 181.871094 37.34375 181.921875 C 37.859375 181.972656 38.378906 182 38.898438 182 C 39.414062 182 39.933594 181.972656 40.449219 181.921875 C 40.964844 181.871094 41.476562 181.796875 41.988281 181.695312 C 42.496094 181.59375 43 181.46875 43.496094 181.316406 C 43.992188 181.167969 44.480469 180.992188 44.957031 180.792969 C 45.4375 180.597656 45.90625 180.375 46.363281 180.128906 C 46.820312 179.886719 47.265625 179.621094 47.695312 179.332031 C 48.128906 179.042969 48.542969 178.734375 48.945312 178.40625 C 49.347656 178.078125 49.730469 177.730469 50.097656 177.363281 C 50.464844 177 50.8125 176.617188 51.140625 176.214844 C 51.46875 175.8125 51.777344 175.398438 52.066406 174.96875 C 52.355469 174.539062 52.621094 174.09375 52.867188 173.636719 C 53.109375 173.179688 53.332031 172.710938 53.53125 172.234375 C 53.730469 171.753906 53.902344 171.265625 54.054688 170.773438 C 54.203125 170.277344 54.332031 169.773438 54.433594 169.265625 C 54.53125 168.757812 54.609375 168.246094 54.660156 167.730469 C 54.710938 167.214844 54.734375 166.699219 54.734375 166.179688 C 54.734375 165.140625 54.632812 164.113281 54.429688 163.09375 C 54.226562 162.078125 53.925781 161.089844 53.527344 160.128906 C 53.128906 159.171875 52.640625 158.257812 52.0625 157.394531 C 51.484375 156.53125 50.828125 155.734375 50.089844 155 C 49.355469 154.265625 48.558594 153.609375 47.691406 153.03125 C 46.828125 152.457031 45.914062 151.96875 44.957031 151.570312 C 43.996094 151.171875 43.003906 150.871094 41.984375 150.667969 C 40.964844 150.464844 39.9375 150.363281 38.898438 150.359375 Z M 38.898438 150.359375 " fill-opacity="1" fill-rule="nonzero"/><path fill="#f5929f" d="M 59.285156 152.648438 L 66.285156 152.648438 L 66.285156 156.554688 L 59.285156 156.554688 Z M 59.285156 152.648438 " fill-opacity="1" fill-rule="nonzero"/><path fill="#231f20" d="M 67.726562 155.609375 L 59.75 155.609375 L 59.75 153.808594 L 67.726562 153.808594 C 67.859375 153.808594 67.988281 153.785156 68.113281 153.734375 C 68.234375 153.683594 68.34375 153.609375 68.4375 153.515625 C 68.53125 153.421875 68.605469 153.3125 68.65625 153.191406 C 68.707031 153.066406 68.734375 152.941406 68.734375 152.808594 C 68.734375 152.671875 68.707031 152.546875 68.65625 152.421875 C 68.605469 152.300781 68.53125 152.191406 68.4375 152.097656 C 68.34375 152.003906 68.234375 151.929688 68.113281 151.878906 C 67.988281 151.828125 67.859375 151.804688 67.726562 151.804688 L 58.746094 151.804688 C 58.613281 151.804688 58.484375 151.828125 58.363281 151.878906 C 58.238281 151.929688 58.128906 152.003906 58.035156 152.097656 C 57.941406 152.191406 57.867188 152.300781 57.816406 152.421875 C 57.765625 152.546875 57.742188 152.671875 57.742188 152.808594 L 57.742188 156.613281 C 57.742188 156.746094 57.765625 156.871094 57.816406 156.996094 C 57.867188 157.117188 57.941406 157.226562 58.035156 157.320312 C 58.128906 157.414062 58.238281 157.488281 58.363281 157.539062 C 58.484375 157.589844 58.613281 157.613281 58.746094 157.613281 L 67.726562 157.613281 C 67.859375 157.613281 67.988281 157.589844 68.113281 157.539062 C 68.234375 157.488281 68.34375 157.414062 68.4375 157.320312 C 68.53125 157.226562 68.605469 157.117188 68.65625 156.996094 C 68.707031 156.871094 68.734375 156.746094 68.734375 156.613281 C 68.734375 156.476562 68.707031 156.351562 68.65625 156.226562 C 68.605469 156.105469 68.53125 155.996094 68.4375 155.902344 C 68.34375 155.808594 68.234375 155.734375 68.113281 155.683594 C 67.988281 155.632812 67.859375 155.609375 67.726562 155.609375 Z M 67.726562 155.609375 " fill-opacity="1" fill-rule="nonzero"/><path fill="#f8f5bb" d="M 66.121094 168.691406 C 66.121094 169.070312 66.046875 169.441406 65.902344 169.792969 C 65.753906 170.144531 65.546875 170.457031 65.277344 170.726562 C 65.003906 170.996094 64.695312 171.203125 64.339844 171.351562 C 63.988281 171.496094 63.621094 171.570312 63.238281 171.570312 C 62.855469 171.570312 62.488281 171.496094 62.132812 171.351562 C 61.78125 171.203125 61.46875 170.996094 61.199219 170.726562 C 60.929688 170.457031 60.71875 170.144531 60.574219 169.792969 C 60.425781 169.441406 60.355469 169.070312 60.355469 168.691406 C 60.355469 168.308594 60.425781 167.941406 60.574219 167.589844 C 60.71875 167.234375 60.929688 166.925781 61.199219 166.65625 C 61.46875 166.382812 61.78125 166.175781 62.132812 166.03125 C 62.488281 165.882812 62.855469 165.8125 63.238281 165.8125 C 63.621094 165.8125 63.988281 165.882812 64.339844 166.03125 C 64.695312 166.175781 65.003906 166.382812 65.277344 166.65625 C 65.546875 166.925781 65.753906 167.234375 65.902344 167.589844 C 66.046875 167.941406 66.121094 168.308594 66.121094 168.691406 Z M 66.121094 168.691406 " fill-opacity="1" fill-rule="nonzero"/><path fill="#231f20" d="M 63.238281 172.574219 C 62.722656 172.574219 62.226562 172.476562 61.75 172.277344 C 61.273438 172.082031 60.851562 171.800781 60.488281 171.4375 C 60.125 171.070312 59.84375 170.652344 59.644531 170.175781 C 59.449219 169.699219 59.347656 169.207031 59.347656 168.691406 C 59.347656 168.175781 59.449219 167.679688 59.644531 167.203125 C 59.84375 166.730469 60.125 166.308594 60.488281 165.945312 C 60.851562 165.582031 61.273438 165.300781 61.75 165.101562 C 62.226562 164.90625 62.722656 164.808594 63.238281 164.808594 C 63.753906 164.808594 64.25 164.90625 64.726562 165.101562 C 65.203125 165.300781 65.621094 165.582031 65.988281 165.945312 C 66.351562 166.308594 66.632812 166.730469 66.828125 167.203125 C 67.027344 167.679688 67.125 168.175781 67.125 168.691406 C 67.125 169.207031 67.027344 169.699219 66.828125 170.175781 C 66.628906 170.652344 66.351562 171.070312 65.984375 171.433594 C 65.621094 171.796875 65.199219 172.078125 64.722656 172.277344 C 64.25 172.472656 63.753906 172.574219 63.238281 172.574219 Z M 63.238281 166.816406 C 62.988281 166.816406 62.75 166.863281 62.519531 166.957031 C 62.289062 167.054688 62.085938 167.1875 61.910156 167.363281 C 61.734375 167.539062 61.597656 167.742188 61.503906 167.972656 C 61.40625 168.203125 61.359375 168.441406 61.359375 168.691406 C 61.359375 168.9375 61.40625 169.179688 61.503906 169.410156 C 61.597656 169.636719 61.734375 169.839844 61.910156 170.015625 C 62.085938 170.191406 62.289062 170.328125 62.519531 170.421875 C 62.75 170.519531 62.988281 170.566406 63.238281 170.566406 C 63.488281 170.566406 63.726562 170.519531 63.957031 170.421875 C 64.1875 170.328125 64.390625 170.191406 64.566406 170.015625 C 64.742188 169.839844 64.878906 169.636719 64.972656 169.410156 C 65.066406 169.179688 65.117188 168.9375 65.117188 168.691406 C 65.113281 168.441406 65.066406 168.203125 64.972656 167.972656 C 64.875 167.742188 64.742188 167.539062 64.566406 167.363281 C 64.390625 167.1875 64.1875 167.054688 63.957031 166.957031 C 63.726562 166.863281 63.488281 166.816406 63.238281 166.816406 Z M 63.238281 166.816406 " fill-opacity="1" fill-rule="nonzero"/><path fill="#231f20" d="M 71.664062 187.585938 L 17.679688 187.585938 C 17.546875 187.585938 17.417969 187.5625 17.292969 187.511719 C 17.171875 187.460938 17.0625 187.386719 16.96875 187.292969 C 16.875 187.199219 16.800781 187.089844 16.75 186.96875 C 16.699219 186.84375 16.675781 186.714844 16.675781 186.582031 C 16.675781 186.449219 16.699219 186.324219 16.75 186.199219 C 16.800781 186.078125 16.875 185.96875 16.96875 185.875 C 17.0625 185.78125 17.171875 185.707031 17.292969 185.65625 C 17.417969 185.605469 17.546875 185.578125 17.679688 185.578125 L 71.664062 185.578125 C 71.800781 185.578125 71.925781 185.605469 72.050781 185.65625 C 72.171875 185.707031 72.28125 185.78125 72.375 185.875 C 72.46875 185.96875 72.542969 186.078125 72.59375 186.199219 C 72.644531 186.324219 72.671875 186.449219 72.671875 186.582031 C 72.671875 186.714844 72.644531 186.84375 72.59375 186.96875 C 72.542969 187.089844 72.46875 187.199219 72.375 187.292969 C 72.28125 187.386719 72.171875 187.460938 72.050781 187.511719 C 71.925781 187.5625 71.800781 187.585938 71.664062 187.585938 Z M 71.664062 187.585938 " fill-opacity="1" fill-rule="nonzero"/><path fill="#f5929f" d="M 50.753906 201.105469 L 47.613281 195.667969 L 30.386719 195.667969 L 27.246094 201.105469 Z M 50.753906 201.105469 " fill-opacity="1" fill-rule="nonzero"/><path fill="#231f20" d="M 52.496094 202.105469 L 25.503906 202.105469 L 29.808594 194.664062 L 48.191406 194.664062 Z M 28.988281 200.101562 L 49.011719 200.101562 L 47.03125 196.671875 L 30.96875 196.671875 Z M 28.988281 200.101562 " fill-opacity="1" fill-rule="nonzero"/><path fill="#f5929f" d="M 22.582031 201.015625 L 55.210938 201.015625 C 55.414062 201.015625 55.609375 201.054688 55.796875 201.132812 C 55.984375 201.210938 56.148438 201.320312 56.292969 201.464844 C 56.4375 201.605469 56.546875 201.773438 56.625 201.960938 C 56.703125 202.144531 56.742188 202.339844 56.742188 202.542969 L 56.742188 203.679688 C 56.742188 203.882812 56.703125 204.078125 56.625 204.265625 C 56.546875 204.453125 56.4375 204.617188 56.292969 204.761719 C 56.148438 204.902344 55.984375 205.015625 55.796875 205.09375 C 55.609375 205.167969 55.414062 205.207031 55.210938 205.207031 L 22.582031 205.207031 C 22.378906 205.207031 22.183594 205.167969 21.996094 205.09375 C 21.808594 205.015625 21.644531 204.902344 21.5 204.761719 C 21.359375 204.617188 21.246094 204.453125 21.167969 204.265625 C 21.09375 204.078125 21.054688 203.882812 21.054688 203.679688 L 21.054688 202.542969 C 21.054688 202.339844 21.09375 202.144531 21.167969 201.960938 C 21.246094 201.773438 21.359375 201.605469 21.5 201.464844 C 21.644531 201.320312 21.808594 201.210938 21.996094 201.132812 C 22.183594 201.054688 22.378906 201.015625 22.582031 201.015625 Z M 22.582031 201.015625 " fill-opacity="1" fill-rule="nonzero"/><g clip-path="url(#bfe92f129d)"><path fill="#231f20" d="M 55.210938 206.210938 L 22.582031 206.210938 C 22.246094 206.210938 21.921875 206.148438 21.613281 206.019531 C 21.300781 205.890625 21.027344 205.707031 20.792969 205.46875 C 20.554688 205.234375 20.371094 204.957031 20.242188 204.648438 C 20.113281 204.339844 20.046875 204.015625 20.046875 203.679688 L 20.046875 202.542969 C 20.046875 202.207031 20.113281 201.886719 20.242188 201.574219 C 20.371094 201.265625 20.554688 200.992188 20.792969 200.753906 C 21.027344 200.519531 21.300781 200.335938 21.613281 200.207031 C 21.921875 200.078125 22.246094 200.011719 22.582031 200.011719 L 55.210938 200.011719 C 55.546875 200.011719 55.871094 200.078125 56.179688 200.207031 C 56.492188 200.335938 56.765625 200.519531 57.003906 200.753906 C 57.242188 200.992188 57.421875 201.265625 57.550781 201.574219 C 57.679688 201.886719 57.746094 202.207031 57.746094 202.542969 L 57.746094 203.679688 C 57.746094 204.015625 57.679688 204.339844 57.550781 204.648438 C 57.421875 204.960938 57.238281 205.234375 57.003906 205.46875 C 56.765625 205.707031 56.492188 205.890625 56.179688 206.019531 C 55.871094 206.148438 55.546875 206.210938 55.210938 206.210938 Z M 22.582031 202.019531 C 22.4375 202.019531 22.3125 202.070312 22.210938 202.171875 C 22.109375 202.277344 22.058594 202.398438 22.058594 202.542969 L 22.058594 203.679688 C 22.058594 203.824219 22.109375 203.949219 22.210938 204.050781 C 22.3125 204.152344 22.4375 204.203125 22.582031 204.203125 L 55.210938 204.203125 C 55.355469 204.203125 55.480469 204.152344 55.582031 204.050781 C 55.683594 203.949219 55.734375 203.824219 55.734375 203.679688 L 55.734375 202.542969 C 55.734375 202.398438 55.683594 202.277344 55.582031 202.175781 C 55.480469 202.070312 55.355469 202.019531 55.210938 202.019531 Z M 22.582031 202.019531 " fill-opacity="1" fill-rule="nonzero"/></g><g fill="#231f20" fill-opacity="1"><g transform="translate(80.432165, 189.411389)"><g><path d="M 27.65625 0 L 20.59375 -10.1875 L 12.8125 -10.1875 L 12.8125 0 L 4.34375 0 L 4.34375 -36.59375 L 20.171875 -36.59375 C 23.410156 -36.59375 26.222656 -36.050781 28.609375 -34.96875 C 31.003906 -33.882812 32.84375 -32.347656 34.125 -30.359375 C 35.414062 -28.378906 36.0625 -26.03125 36.0625 -23.3125 C 36.0625 -20.59375 35.40625 -18.25 34.09375 -16.28125 C 32.789062 -14.3125 30.9375 -12.804688 28.53125 -11.765625 L 36.75 0 Z M 27.484375 -23.3125 C 27.484375 -25.363281 26.820312 -26.9375 25.5 -28.03125 C 24.175781 -29.132812 22.242188 -29.6875 19.703125 -29.6875 L 12.8125 -29.6875 L 12.8125 -16.9375 L 19.703125 -16.9375 C 22.242188 -16.9375 24.175781 -17.492188 25.5 -18.609375 C 26.820312 -19.722656 27.484375 -21.289062 27.484375 -23.3125 Z M 27.484375 -23.3125 "/></g></g></g><g fill="#231f20" fill-opacity="1"><g transform="translate(122.183007, 189.411389)"><g><path d="M 4.34375 -36.59375 L 12.8125 -36.59375 L 12.8125 0 L 4.34375 0 Z M 4.34375 -36.59375 "/></g></g></g><g fill="#231f20" fill-opacity="1"><g transform="translate(142.666926, 189.411389)"><g><path d="M 29.0625 -18.875 L 36.796875 -18.875 L 36.796875 -4.03125 C 34.804688 -2.53125 32.503906 -1.378906 29.890625 -0.578125 C 27.273438 0.222656 24.644531 0.625 22 0.625 C 18.207031 0.625 14.796875 -0.179688 11.765625 -1.796875 C 8.734375 -3.421875 6.351562 -5.671875 4.625 -8.546875 C 2.894531 -11.421875 2.03125 -14.671875 2.03125 -18.296875 C 2.03125 -21.921875 2.894531 -25.171875 4.625 -28.046875 C 6.351562 -30.921875 8.75 -33.164062 11.8125 -34.78125 C 14.875 -36.40625 18.320312 -37.21875 22.15625 -37.21875 C 25.363281 -37.21875 28.273438 -36.675781 30.890625 -35.59375 C 33.503906 -34.507812 35.695312 -32.941406 37.46875 -30.890625 L 32.03125 -25.875 C 29.425781 -28.625 26.273438 -30 22.578125 -30 C 20.242188 -30 18.171875 -29.507812 16.359375 -28.53125 C 14.546875 -27.5625 13.132812 -26.1875 12.125 -24.40625 C 11.113281 -22.632812 10.609375 -20.597656 10.609375 -18.296875 C 10.609375 -16.023438 11.113281 -14 12.125 -12.21875 C 13.132812 -10.445312 14.535156 -9.0625 16.328125 -8.0625 C 18.128906 -7.070312 20.175781 -6.578125 22.46875 -6.578125 C 24.914062 -6.578125 27.113281 -7.101562 29.0625 -8.15625 Z M 29.0625 -18.875 "/></g></g></g><g fill="#231f20" fill-opacity="1"><g transform="translate(186.298874, 189.411389)"><g><path d="M 31.203125 -19.03125 C 33.296875 -18.363281 34.929688 -17.253906 36.109375 -15.703125 C 37.296875 -14.148438 37.890625 -12.242188 37.890625 -9.984375 C 37.890625 -6.773438 36.644531 -4.304688 34.15625 -2.578125 C 31.664062 -0.859375 28.035156 0 23.265625 0 L 4.34375 0 L 4.34375 -36.59375 L 22.21875 -36.59375 C 26.675781 -36.59375 30.097656 -35.738281 32.484375 -34.03125 C 34.867188 -32.320312 36.0625 -30.003906 36.0625 -27.078125 C 36.0625 -25.296875 35.632812 -23.707031 34.78125 -22.3125 C 33.925781 -20.925781 32.734375 -19.832031 31.203125 -19.03125 Z M 12.75 -30.203125 L 12.75 -21.578125 L 21.171875 -21.578125 C 23.253906 -21.578125 24.835938 -21.941406 25.921875 -22.671875 C 27.003906 -23.410156 27.546875 -24.492188 27.546875 -25.921875 C 27.546875 -27.347656 27.003906 -28.414062 25.921875 -29.125 C 24.835938 -29.84375 23.253906 -30.203125 21.171875 -30.203125 Z M 22.625 -6.375 C 24.851562 -6.375 26.535156 -6.738281 27.671875 -7.46875 C 28.804688 -8.207031 29.375 -9.34375 29.375 -10.875 C 29.375 -13.90625 27.125 -15.421875 22.625 -15.421875 L 12.75 -15.421875 L 12.75 -6.375 Z M 22.625 -6.375 "/></g></g></g><g fill="#231f20" fill-opacity="1"><g transform="translate(229.617308, 189.411389)"><g><path d="M 20.59375 0.625 C 15.363281 0.625 11.296875 -0.816406 8.390625 -3.703125 C 5.484375 -6.597656 4.03125 -10.726562 4.03125 -16.09375 L 4.03125 -36.59375 L 12.484375 -36.59375 L 12.484375 -16.40625 C 12.484375 -9.851562 15.203125 -6.578125 20.640625 -6.578125 C 23.285156 -6.578125 25.304688 -7.367188 26.703125 -8.953125 C 28.097656 -10.546875 28.796875 -13.03125 28.796875 -16.40625 L 28.796875 -36.59375 L 37.15625 -36.59375 L 37.15625 -16.09375 C 37.15625 -10.726562 35.703125 -6.597656 32.796875 -3.703125 C 29.890625 -0.816406 25.820312 0.625 20.59375 0.625 Z M 20.59375 0.625 "/></g></g></g><g fill="#231f20" fill-opacity="1"><g transform="translate(274.137547, 189.411389)"><g><path d="M 4.34375 -36.59375 L 12.8125 -36.59375 L 12.8125 0 L 4.34375 0 Z M 4.34375 -36.59375 "/></g></g></g><g fill="#231f20" fill-opacity="1"><g transform="translate(294.621463, 189.411389)"><g><path d="M 4.34375 -36.59375 L 12.8125 -36.59375 L 12.8125 -6.90625 L 31.15625 -6.90625 L 31.15625 0 L 4.34375 0 Z M 4.34375 -36.59375 "/></g></g></g><g fill="#231f20" fill-opacity="1"><g transform="translate(329.527189, 189.411389)"><g><path d="M 4.34375 -36.59375 L 20.953125 -36.59375 C 24.929688 -36.59375 28.441406 -35.832031 31.484375 -34.3125 C 34.535156 -32.789062 36.90625 -30.65625 38.59375 -27.90625 C 40.289062 -25.15625 41.140625 -21.953125 41.140625 -18.296875 C 41.140625 -14.640625 40.289062 -11.429688 38.59375 -8.671875 C 36.90625 -5.921875 34.535156 -3.785156 31.484375 -2.265625 C 28.441406 -0.753906 24.929688 0 20.953125 0 L 4.34375 0 Z M 20.546875 -6.953125 C 24.203125 -6.953125 27.117188 -7.96875 29.296875 -10 C 31.472656 -12.039062 32.5625 -14.804688 32.5625 -18.296875 C 32.5625 -21.773438 31.472656 -24.535156 29.296875 -26.578125 C 27.117188 -28.617188 24.203125 -29.640625 20.546875 -29.640625 L 12.8125 -29.640625 L 12.8125 -6.953125 Z M 20.546875 -6.953125 "/></g></g></g></svg>