<svg xmlns="http://www.w3.org/2000/svg" xmlns:xlink="http://www.w3.org/1999/xlink" width="500" zoomAndPan="magnify" viewBox="0 0 375 374.999991" height="500" preserveAspectRatio="xMidYMid meet" version="1.0"><defs><clipPath id="42029a575c"><path d="M 0 15.769531 L 375 15.769531 L 375 313 L 0 313 Z M 0 15.769531 " clip-rule="nonzero"/></clipPath><clipPath id="3d63204741"><path d="M 96 328 L 278 328 L 278 358.519531 L 96 358.519531 Z M 96 328 " clip-rule="nonzero"/></clipPath></defs><path fill="#f5929f" d="M 33.046875 20.652344 L 341.953125 20.652344 C 342.875 20.652344 343.796875 20.695312 344.71875 20.785156 C 345.636719 20.878906 346.550781 21.011719 347.457031 21.191406 C 348.363281 21.371094 349.257812 21.597656 350.144531 21.863281 C 351.027344 22.132812 351.894531 22.445312 352.75 22.796875 C 353.605469 23.152344 354.4375 23.546875 355.253906 23.980469 C 356.070312 24.414062 356.859375 24.890625 357.628906 25.402344 C 358.398438 25.914062 359.136719 26.464844 359.851562 27.050781 C 360.566406 27.636719 361.25 28.257812 361.90625 28.910156 C 362.558594 29.5625 363.179688 30.246094 363.765625 30.960938 C 364.351562 31.675781 364.898438 32.414062 365.414062 33.183594 C 365.925781 33.949219 366.402344 34.742188 366.835938 35.554688 C 367.273438 36.371094 367.667969 37.203125 368.019531 38.058594 C 368.375 38.910156 368.6875 39.78125 368.953125 40.664062 C 369.222656 41.546875 369.445312 42.441406 369.625 43.347656 C 369.808594 44.253906 369.941406 45.164062 370.03125 46.085938 C 370.125 47.003906 370.167969 47.925781 370.167969 48.847656 L 370.167969 279.378906 C 370.167969 280.300781 370.125 281.222656 370.03125 282.140625 C 369.941406 283.0625 369.808594 283.972656 369.625 284.878906 C 369.445312 285.785156 369.222656 286.679688 368.953125 287.5625 C 368.6875 288.449219 368.375 289.316406 368.019531 290.167969 C 367.667969 291.023438 367.273438 291.855469 366.835938 292.671875 C 366.402344 293.484375 365.925781 294.277344 365.414062 295.042969 C 364.898438 295.8125 364.351562 296.554688 363.765625 297.265625 C 363.179688 297.980469 362.558594 298.664062 361.90625 299.316406 C 361.25 299.96875 360.566406 300.589844 359.851562 301.175781 C 359.136719 301.761719 358.398438 302.3125 357.628906 302.824219 C 356.859375 303.335938 356.070312 303.8125 355.253906 304.246094 C 354.4375 304.683594 353.605469 305.078125 352.75 305.429688 C 351.894531 305.785156 351.027344 306.09375 350.144531 306.363281 C 349.257812 306.628906 348.363281 306.855469 347.457031 307.035156 C 346.550781 307.214844 345.636719 307.351562 344.71875 307.441406 C 343.796875 307.53125 342.875 307.578125 341.953125 307.578125 L 33.046875 307.578125 C 32.125 307.578125 31.203125 307.53125 30.28125 307.441406 C 29.363281 307.351562 28.449219 307.214844 27.542969 307.035156 C 26.636719 306.855469 25.742188 306.628906 24.859375 306.363281 C 23.972656 306.09375 23.105469 305.785156 22.25 305.429688 C 21.398438 305.078125 20.5625 304.683594 19.746094 304.246094 C 18.933594 303.8125 18.140625 303.335938 17.371094 302.824219 C 16.605469 302.3125 15.863281 301.761719 15.148438 301.175781 C 14.433594 300.589844 13.75 299.96875 13.097656 299.316406 C 12.441406 298.664062 11.824219 297.980469 11.238281 297.265625 C 10.648438 296.554688 10.101562 295.8125 9.585938 295.042969 C 9.074219 294.277344 8.597656 293.484375 8.164062 292.671875 C 7.726562 291.855469 7.332031 291.023438 6.980469 290.167969 C 6.625 289.316406 6.316406 288.449219 6.046875 287.5625 C 5.777344 286.679688 5.554688 285.785156 5.375 284.878906 C 5.195312 283.972656 5.058594 283.0625 4.96875 282.140625 C 4.875 281.222656 4.832031 280.300781 4.832031 279.378906 L 4.832031 48.847656 C 4.832031 47.925781 4.875 47.003906 4.96875 46.085938 C 5.058594 45.164062 5.195312 44.253906 5.375 43.347656 C 5.554688 42.441406 5.777344 41.546875 6.046875 40.664062 C 6.316406 39.78125 6.625 38.910156 6.980469 38.058594 C 7.332031 37.203125 7.726562 36.371094 8.164062 35.554688 C 8.597656 34.742188 9.074219 33.949219 9.585938 33.183594 C 10.101562 32.414062 10.648438 31.675781 11.238281 30.960938 C 11.824219 30.246094 12.441406 29.5625 13.097656 28.910156 C 13.75 28.257812 14.433594 27.636719 15.148438 27.050781 C 15.863281 26.464844 16.605469 25.914062 17.371094 25.402344 C 18.140625 24.890625 18.933594 24.414062 19.746094 23.980469 C 20.5625 23.546875 21.398438 23.152344 22.25 22.796875 C 23.105469 22.445312 23.972656 22.132812 24.859375 21.863281 C 25.742188 21.597656 26.636719 21.371094 27.542969 21.191406 C 28.449219 21.011719 29.363281 20.878906 30.28125 20.785156 C 31.203125 20.695312 32.125 20.652344 33.046875 20.652344 Z M 33.046875 20.652344 " fill-opacity="1" fill-rule="nonzero"/><g clip-path="url(#42029a575c)"><path fill="#231f20" d="M 341.953125 312.40625 L 33.046875 312.40625 C 31.964844 312.402344 30.886719 312.347656 29.808594 312.242188 C 28.734375 312.136719 27.664062 311.976562 26.605469 311.761719 C 25.542969 311.550781 24.496094 311.289062 23.460938 310.972656 C 22.425781 310.660156 21.40625 310.292969 20.40625 309.878906 C 19.40625 309.464844 18.429688 309.003906 17.476562 308.492188 C 16.523438 307.984375 15.597656 307.429688 14.695312 306.828125 C 13.796875 306.226562 12.929688 305.582031 12.09375 304.894531 C 11.257812 304.210938 10.457031 303.484375 9.691406 302.71875 C 8.925781 301.957031 8.199219 301.15625 7.511719 300.320312 C 6.828125 299.484375 6.183594 298.617188 5.582031 297.71875 C 4.980469 296.820312 4.421875 295.890625 3.914062 294.9375 C 3.402344 293.984375 2.941406 293.007812 2.527344 292.011719 C 2.109375 291.011719 1.746094 289.996094 1.429688 288.960938 C 1.117188 287.925781 0.851562 286.878906 0.640625 285.820312 C 0.429688 284.757812 0.269531 283.691406 0.164062 282.613281 C 0.0546875 281.539062 0 280.460938 0 279.378906 L 0 48.847656 C 0 47.769531 0.0546875 46.6875 0.164062 45.613281 C 0.269531 44.535156 0.429688 43.46875 0.640625 42.410156 C 0.851562 41.347656 1.117188 40.300781 1.429688 39.265625 C 1.746094 38.230469 2.109375 37.214844 2.527344 36.214844 C 2.941406 35.21875 3.402344 34.242188 3.914062 33.289062 C 4.421875 32.335938 4.980469 31.410156 5.582031 30.507812 C 6.183594 29.609375 6.828125 28.742188 7.511719 27.90625 C 8.199219 27.070312 8.925781 26.273438 9.691406 25.507812 C 10.457031 24.742188 11.257812 24.015625 12.09375 23.332031 C 12.929688 22.644531 13.796875 22 14.695312 21.398438 C 15.597656 20.800781 16.523438 20.242188 17.476562 19.734375 C 18.429688 19.222656 19.40625 18.761719 20.40625 18.347656 C 21.40625 17.933594 22.425781 17.566406 23.460938 17.253906 C 24.496094 16.9375 25.542969 16.675781 26.605469 16.464844 C 27.664062 16.25 28.734375 16.09375 29.808594 15.984375 C 30.886719 15.878906 31.964844 15.824219 33.046875 15.824219 L 341.953125 15.824219 C 343.035156 15.824219 344.117188 15.878906 345.191406 15.984375 C 346.269531 16.09375 347.335938 16.25 348.398438 16.464844 C 349.460938 16.675781 350.507812 16.9375 351.542969 17.253906 C 352.578125 17.566406 353.597656 17.933594 354.59375 18.347656 C 355.59375 18.761719 356.570312 19.222656 357.527344 19.734375 C 358.480469 20.242188 359.40625 20.800781 360.304688 21.398438 C 361.207031 22 362.074219 22.644531 362.910156 23.332031 C 363.746094 24.015625 364.546875 24.742188 365.3125 25.507812 C 366.078125 26.273438 366.800781 27.070312 367.488281 27.90625 C 368.175781 28.742188 368.820312 29.609375 369.421875 30.507812 C 370.023438 31.410156 370.578125 32.335938 371.089844 33.289062 C 371.597656 34.242188 372.0625 35.21875 372.476562 36.214844 C 372.890625 37.214844 373.253906 38.230469 373.570312 39.265625 C 373.886719 40.300781 374.148438 41.347656 374.359375 42.410156 C 374.574219 43.46875 374.730469 44.535156 374.839844 45.613281 C 374.945312 46.6875 375 47.769531 375 48.847656 L 375 279.378906 C 375 280.460938 374.945312 281.539062 374.839844 282.613281 C 374.730469 283.691406 374.574219 284.757812 374.359375 285.820312 C 374.148438 286.878906 373.886719 287.925781 373.570312 288.960938 C 373.253906 289.996094 372.890625 291.011719 372.476562 292.011719 C 372.0625 293.007812 371.597656 293.984375 371.089844 294.9375 C 370.578125 295.890625 370.023438 296.820312 369.421875 297.71875 C 368.820312 298.617188 368.175781 299.484375 367.488281 300.320312 C 366.800781 301.15625 366.078125 301.957031 365.3125 302.71875 C 364.546875 303.484375 363.746094 304.210938 362.910156 304.894531 C 362.074219 305.582031 361.207031 306.226562 360.304688 306.828125 C 359.40625 307.429688 358.480469 307.984375 357.523438 308.492188 C 356.570312 309.003906 355.59375 309.464844 354.59375 309.878906 C 353.597656 310.292969 352.578125 310.660156 351.542969 310.972656 C 350.507812 311.289062 349.460938 311.550781 348.398438 311.761719 C 347.335938 311.976562 346.269531 312.136719 345.191406 312.242188 C 344.117188 312.347656 343.035156 312.402344 341.953125 312.40625 Z M 33.046875 25.480469 C 32.28125 25.480469 31.519531 25.519531 30.757812 25.59375 C 29.996094 25.667969 29.238281 25.78125 28.488281 25.933594 C 27.738281 26.082031 26.996094 26.269531 26.261719 26.492188 C 25.53125 26.714844 24.808594 26.972656 24.101562 27.265625 C 23.394531 27.558594 22.703125 27.886719 22.03125 28.246094 C 21.355469 28.605469 20.699219 29 20.0625 29.425781 C 19.425781 29.851562 18.8125 30.304688 18.21875 30.792969 C 17.628906 31.277344 17.0625 31.789062 16.519531 32.332031 C 15.980469 32.871094 15.464844 33.4375 14.980469 34.03125 C 14.492188 34.621094 14.039062 35.234375 13.613281 35.871094 C 13.1875 36.507812 12.792969 37.164062 12.433594 37.835938 C 12.070312 38.511719 11.742188 39.203125 11.449219 39.910156 C 11.15625 40.617188 10.898438 41.335938 10.675781 42.066406 C 10.453125 42.800781 10.265625 43.542969 10.117188 44.292969 C 9.964844 45.042969 9.855469 45.796875 9.777344 46.558594 C 9.703125 47.320312 9.664062 48.082031 9.664062 48.847656 L 9.664062 279.378906 C 9.664062 280.144531 9.703125 280.90625 9.777344 281.667969 C 9.855469 282.429688 9.964844 283.183594 10.117188 283.933594 C 10.265625 284.6875 10.453125 285.425781 10.675781 286.160156 C 10.898438 286.890625 11.15625 287.609375 11.449219 288.316406 C 11.742188 289.023438 12.070312 289.714844 12.433594 290.390625 C 12.792969 291.0625 13.1875 291.71875 13.613281 292.355469 C 14.039062 292.992188 14.492188 293.605469 14.980469 294.195312 C 15.464844 294.789062 15.980469 295.355469 16.519531 295.894531 C 17.0625 296.4375 17.628906 296.949219 18.21875 297.433594 C 18.8125 297.921875 19.425781 298.375 20.0625 298.800781 C 20.699219 299.226562 21.355469 299.621094 22.03125 299.980469 C 22.703125 300.339844 23.394531 300.667969 24.101562 300.960938 C 24.808594 301.253906 25.53125 301.511719 26.261719 301.734375 C 26.996094 301.957031 27.738281 302.144531 28.488281 302.292969 C 29.238281 302.445312 29.996094 302.558594 30.757812 302.632812 C 31.519531 302.707031 32.28125 302.746094 33.046875 302.746094 L 341.953125 302.746094 C 342.71875 302.746094 343.484375 302.707031 344.246094 302.632812 C 345.007812 302.558594 345.761719 302.445312 346.515625 302.292969 C 347.265625 302.144531 348.007812 301.957031 348.738281 301.734375 C 349.472656 301.511719 350.191406 301.253906 350.898438 300.960938 C 351.605469 300.667969 352.296875 300.339844 352.972656 299.980469 C 353.648438 299.621094 354.304688 299.226562 354.941406 298.800781 C 355.578125 298.375 356.191406 297.921875 356.78125 297.433594 C 357.375 296.949219 357.941406 296.4375 358.480469 295.894531 C 359.023438 295.355469 359.535156 294.789062 360.023438 294.195312 C 360.507812 293.605469 360.964844 292.992188 361.390625 292.355469 C 361.816406 291.71875 362.207031 291.0625 362.570312 290.390625 C 362.929688 289.714844 363.257812 289.023438 363.550781 288.316406 C 363.84375 287.609375 364.101562 286.890625 364.324219 286.160156 C 364.546875 285.425781 364.734375 284.6875 364.886719 283.933594 C 365.035156 283.183594 365.148438 282.429688 365.222656 281.667969 C 365.300781 280.90625 365.335938 280.144531 365.339844 279.378906 L 365.339844 48.847656 C 365.335938 48.082031 365.300781 47.320312 365.222656 46.558594 C 365.148438 45.796875 365.035156 45.042969 364.886719 44.292969 C 364.734375 43.542969 364.546875 42.800781 364.324219 42.066406 C 364.101562 41.335938 363.84375 40.617188 363.550781 39.910156 C 363.257812 39.203125 362.929688 38.511719 362.570312 37.839844 C 362.207031 37.164062 361.816406 36.507812 361.390625 35.871094 C 360.964844 35.234375 360.507812 34.621094 360.023438 34.03125 C 359.535156 33.4375 359.023438 32.871094 358.480469 32.332031 C 357.941406 31.789062 357.375 31.277344 356.78125 30.792969 C 356.191406 30.304688 355.578125 29.851562 354.941406 29.425781 C 354.304688 29 353.648438 28.609375 352.972656 28.246094 C 352.296875 27.886719 351.605469 27.558594 350.898438 27.265625 C 350.191406 26.972656 349.472656 26.714844 348.738281 26.492188 C 348.007812 26.269531 347.265625 26.082031 346.515625 25.933594 C 345.761719 25.78125 345.007812 25.667969 344.246094 25.59375 C 343.484375 25.519531 342.71875 25.480469 341.953125 25.480469 Z M 33.046875 25.480469 " fill-opacity="1" fill-rule="nonzero"/></g><path fill="#c4e5f2" d="M 33.542969 39.230469 L 340.46875 39.230469 C 341.050781 39.230469 341.632812 39.289062 342.207031 39.402344 C 342.777344 39.515625 343.335938 39.6875 343.875 39.910156 C 344.417969 40.132812 344.929688 40.40625 345.417969 40.730469 C 345.902344 41.058594 346.355469 41.425781 346.769531 41.839844 C 347.179688 42.253906 347.550781 42.703125 347.875 43.1875 C 348.199219 43.675781 348.476562 44.1875 348.699219 44.730469 C 348.921875 45.269531 349.09375 45.824219 349.207031 46.398438 C 349.320312 46.972656 349.378906 47.550781 349.378906 48.136719 L 349.378906 279.65625 C 349.378906 280.242188 349.320312 280.820312 349.207031 281.394531 C 349.09375 281.964844 348.921875 282.523438 348.699219 283.0625 C 348.476562 283.601562 348.199219 284.117188 347.875 284.601562 C 347.550781 285.089844 347.179688 285.539062 346.769531 285.953125 C 346.355469 286.367188 345.902344 286.734375 345.417969 287.058594 C 344.929688 287.382812 344.417969 287.660156 343.875 287.882812 C 343.335938 288.105469 342.777344 288.273438 342.207031 288.390625 C 341.632812 288.503906 341.050781 288.558594 340.46875 288.558594 L 33.542969 288.558594 C 32.957031 288.558594 32.378906 288.503906 31.804688 288.390625 C 31.230469 288.273438 30.675781 288.105469 30.132812 287.882812 C 29.59375 287.660156 29.078125 287.382812 28.59375 287.058594 C 28.105469 286.734375 27.65625 286.367188 27.242188 285.953125 C 26.828125 285.539062 26.460938 285.089844 26.136719 284.601562 C 25.808594 284.117188 25.535156 283.601562 25.3125 283.0625 C 25.085938 282.523438 24.917969 281.964844 24.804688 281.394531 C 24.691406 280.820312 24.632812 280.242188 24.632812 279.65625 L 24.632812 48.136719 C 24.632812 47.550781 24.691406 46.972656 24.804688 46.398438 C 24.917969 45.824219 25.085938 45.269531 25.3125 44.730469 C 25.535156 44.1875 25.808594 43.675781 26.136719 43.1875 C 26.460938 42.703125 26.828125 42.253906 27.242188 41.839844 C 27.65625 41.425781 28.105469 41.058594 28.59375 40.730469 C 29.078125 40.40625 29.59375 40.132812 30.132812 39.910156 C 30.675781 39.6875 31.230469 39.515625 31.804688 39.402344 C 32.378906 39.289062 32.957031 39.230469 33.542969 39.230469 Z M 33.542969 39.230469 " fill-opacity="1" fill-rule="nonzero"/><path fill="#91d2e7" d="M 29.464844 39.230469 L 86.015625 39.230469 L 86.015625 287.789062 L 29.464844 287.789062 Z M 29.464844 39.230469 " fill-opacity="1" fill-rule="nonzero"/><path fill="#231f20" d="M 340.46875 293.386719 L 33.542969 293.386719 C 32.640625 293.386719 31.746094 293.296875 30.863281 293.121094 C 29.980469 292.945312 29.121094 292.683594 28.285156 292.335938 C 27.453125 291.992188 26.660156 291.570312 25.910156 291.066406 C 25.160156 290.566406 24.46875 289.996094 23.832031 289.359375 C 23.191406 288.722656 22.621094 288.027344 22.121094 287.28125 C 21.621094 286.53125 21.195312 285.738281 20.851562 284.90625 C 20.503906 284.074219 20.246094 283.214844 20.066406 282.332031 C 19.890625 281.449219 19.800781 280.554688 19.800781 279.652344 L 19.800781 48.136719 C 19.800781 47.234375 19.890625 46.34375 20.066406 45.457031 C 20.246094 44.574219 20.503906 43.714844 20.851562 42.882812 C 21.195312 42.050781 21.621094 41.257812 22.121094 40.511719 C 22.621094 39.761719 23.191406 39.066406 23.832031 38.429688 C 24.46875 37.792969 25.160156 37.222656 25.910156 36.722656 C 26.660156 36.222656 27.453125 35.796875 28.285156 35.453125 C 29.121094 35.109375 29.980469 34.847656 30.863281 34.667969 C 31.746094 34.492188 32.640625 34.40625 33.542969 34.402344 L 340.46875 34.402344 C 341.371094 34.40625 342.261719 34.492188 343.148438 34.671875 C 344.03125 34.847656 344.890625 35.109375 345.722656 35.453125 C 346.558594 35.796875 347.347656 36.222656 348.097656 36.722656 C 348.847656 37.222656 349.542969 37.792969 350.179688 38.429688 C 350.816406 39.066406 351.386719 39.761719 351.890625 40.511719 C 352.390625 41.261719 352.8125 42.050781 353.160156 42.882812 C 353.503906 43.714844 353.765625 44.574219 353.941406 45.457031 C 354.121094 46.34375 354.207031 47.234375 354.210938 48.136719 L 354.210938 279.65625 C 354.207031 280.554688 354.121094 281.449219 353.941406 282.332031 C 353.765625 283.21875 353.503906 284.074219 353.160156 284.90625 C 352.8125 285.742188 352.390625 286.53125 351.886719 287.28125 C 351.386719 288.03125 350.816406 288.722656 350.179688 289.359375 C 349.542969 290 348.847656 290.566406 348.097656 291.066406 C 347.347656 291.570312 346.558594 291.992188 345.722656 292.339844 C 344.890625 292.683594 344.03125 292.945312 343.148438 293.121094 C 342.261719 293.296875 341.367188 293.386719 340.46875 293.386719 Z M 33.542969 44.058594 C 33.277344 44.058594 33.011719 44.085938 32.746094 44.140625 C 32.484375 44.191406 32.230469 44.269531 31.984375 44.371094 C 31.734375 44.472656 31.5 44.601562 31.277344 44.75 C 31.054688 44.898438 30.851562 45.066406 30.660156 45.253906 C 30.472656 45.445312 30.300781 45.652344 30.152344 45.871094 C 30.003906 46.09375 29.878906 46.328125 29.777344 46.578125 C 29.671875 46.824219 29.597656 47.078125 29.542969 47.339844 C 29.492188 47.605469 29.464844 47.867188 29.464844 48.136719 L 29.464844 279.65625 C 29.464844 279.921875 29.492188 280.1875 29.542969 280.449219 C 29.597656 280.710938 29.671875 280.96875 29.777344 281.214844 C 29.878906 281.460938 30.003906 281.695312 30.152344 281.917969 C 30.300781 282.140625 30.472656 282.347656 30.660156 282.535156 C 30.851562 282.722656 31.054688 282.894531 31.277344 283.042969 C 31.5 283.191406 31.734375 283.316406 31.984375 283.417969 C 32.230469 283.523438 32.484375 283.597656 32.746094 283.652344 C 33.011719 283.703125 33.277344 283.730469 33.542969 283.730469 L 340.46875 283.730469 C 340.734375 283.730469 341 283.703125 341.261719 283.652344 C 341.527344 283.597656 341.78125 283.519531 342.027344 283.417969 C 342.277344 283.316406 342.511719 283.191406 342.734375 283.042969 C 342.957031 282.894531 343.160156 282.722656 343.351562 282.535156 C 343.539062 282.34375 343.710938 282.140625 343.859375 281.917969 C 344.007812 281.695312 344.132812 281.460938 344.234375 281.214844 C 344.335938 280.964844 344.414062 280.710938 344.46875 280.449219 C 344.519531 280.1875 344.546875 279.921875 344.546875 279.652344 L 344.546875 48.136719 C 344.546875 47.867188 344.519531 47.605469 344.46875 47.339844 C 344.414062 47.078125 344.335938 46.824219 344.234375 46.578125 C 344.132812 46.332031 344.007812 46.09375 343.859375 45.871094 C 343.710938 45.652344 343.539062 45.445312 343.351562 45.253906 C 343.160156 45.066406 342.957031 44.898438 342.734375 44.75 C 342.511719 44.601562 342.277344 44.472656 342.027344 44.371094 C 341.78125 44.269531 341.527344 44.191406 341.261719 44.140625 C 341 44.085938 340.734375 44.058594 340.46875 44.058594 Z M 33.542969 44.058594 " fill-opacity="1" fill-rule="nonzero"/><path fill="#231f20" d="M 84.996094 159.046875 C 84.679688 159.046875 84.367188 159.015625 84.054688 158.957031 C 83.742188 158.894531 83.441406 158.800781 83.148438 158.679688 C 82.855469 158.558594 82.578125 158.410156 82.3125 158.234375 C 82.050781 158.058594 81.804688 157.859375 81.582031 157.632812 C 81.355469 157.410156 81.15625 157.164062 80.980469 156.902344 C 80.804688 156.636719 80.65625 156.359375 80.535156 156.066406 C 80.414062 155.773438 80.320312 155.472656 80.257812 155.160156 C 80.195312 154.851562 80.164062 154.535156 80.164062 154.21875 L 80.164062 39.230469 C 80.164062 38.914062 80.195312 38.601562 80.257812 38.289062 C 80.320312 37.980469 80.414062 37.675781 80.535156 37.382812 C 80.65625 37.089844 80.804688 36.8125 80.980469 36.550781 C 81.15625 36.285156 81.355469 36.042969 81.582031 35.816406 C 81.804688 35.59375 82.050781 35.394531 82.3125 35.21875 C 82.578125 35.042969 82.855469 34.890625 83.148438 34.769531 C 83.441406 34.648438 83.742188 34.558594 84.054688 34.496094 C 84.367188 34.433594 84.679688 34.402344 84.996094 34.402344 C 85.316406 34.402344 85.628906 34.433594 85.941406 34.496094 C 86.25 34.558594 86.554688 34.648438 86.847656 34.769531 C 87.140625 34.890625 87.417969 35.042969 87.683594 35.21875 C 87.945312 35.394531 88.191406 35.59375 88.414062 35.816406 C 88.636719 36.042969 88.839844 36.285156 89.015625 36.550781 C 89.191406 36.8125 89.339844 37.089844 89.460938 37.382812 C 89.582031 37.675781 89.675781 37.980469 89.734375 38.289062 C 89.796875 38.601562 89.828125 38.914062 89.828125 39.230469 L 89.828125 154.21875 C 89.828125 154.535156 89.796875 154.851562 89.734375 155.160156 C 89.675781 155.472656 89.582031 155.773438 89.460938 156.066406 C 89.339844 156.359375 89.191406 156.636719 89.015625 156.902344 C 88.839844 157.164062 88.636719 157.410156 88.414062 157.632812 C 88.191406 157.859375 87.945312 158.058594 87.683594 158.234375 C 87.417969 158.410156 87.140625 158.558594 86.847656 158.679688 C 86.554688 158.800781 86.25 158.894531 85.941406 158.957031 C 85.628906 159.015625 85.316406 159.046875 84.996094 159.046875 Z M 84.996094 159.046875 " fill-opacity="1" fill-rule="nonzero"/><path fill="#231f20" d="M 84.996094 292.785156 C 84.679688 292.785156 84.367188 292.753906 84.054688 292.691406 C 83.742188 292.628906 83.441406 292.539062 83.148438 292.417969 C 82.855469 292.292969 82.578125 292.144531 82.3125 291.96875 C 82.050781 291.792969 81.804688 291.59375 81.582031 291.371094 C 81.355469 291.144531 81.15625 290.902344 80.980469 290.636719 C 80.804688 290.375 80.65625 290.097656 80.535156 289.804688 C 80.414062 289.511719 80.320312 289.207031 80.257812 288.898438 C 80.195312 288.585938 80.164062 288.273438 80.164062 287.957031 L 80.164062 191.8125 C 80.164062 191.496094 80.195312 191.179688 80.257812 190.871094 C 80.320312 190.558594 80.414062 190.257812 80.535156 189.964844 C 80.65625 189.671875 80.804688 189.394531 80.980469 189.128906 C 81.15625 188.867188 81.355469 188.621094 81.582031 188.398438 C 81.804688 188.175781 82.050781 187.972656 82.3125 187.796875 C 82.578125 187.621094 82.855469 187.472656 83.148438 187.351562 C 83.441406 187.230469 83.742188 187.140625 84.054688 187.078125 C 84.367188 187.015625 84.679688 186.984375 84.996094 186.984375 C 85.316406 186.984375 85.628906 187.015625 85.941406 187.078125 C 86.25 187.140625 86.554688 187.230469 86.847656 187.351562 C 87.140625 187.472656 87.417969 187.621094 87.683594 187.796875 C 87.945312 187.972656 88.191406 188.175781 88.414062 188.398438 C 88.636719 188.621094 88.839844 188.867188 89.015625 189.128906 C 89.191406 189.394531 89.339844 189.671875 89.460938 189.964844 C 89.582031 190.257812 89.675781 190.558594 89.734375 190.871094 C 89.796875 191.179688 89.828125 191.496094 89.828125 191.8125 L 89.828125 287.957031 C 89.828125 288.273438 89.796875 288.585938 89.734375 288.898438 C 89.675781 289.207031 89.582031 289.511719 89.460938 289.804688 C 89.339844 290.097656 89.191406 290.375 89.015625 290.636719 C 88.839844 290.902344 88.636719 291.144531 88.414062 291.371094 C 88.191406 291.59375 87.945312 291.792969 87.683594 291.96875 C 87.417969 292.144531 87.140625 292.292969 86.847656 292.417969 C 86.554688 292.539062 86.25 292.628906 85.941406 292.691406 C 85.628906 292.753906 85.316406 292.785156 84.996094 292.785156 Z M 84.996094 292.785156 " fill-opacity="1" fill-rule="nonzero"/><path fill="#231f20" d="M 56.316406 226.4375 C 56 226.4375 55.683594 226.40625 55.371094 226.34375 C 55.0625 226.28125 54.757812 226.191406 54.464844 226.070312 C 54.171875 225.945312 53.894531 225.796875 53.632812 225.621094 C 53.367188 225.445312 53.125 225.246094 52.898438 225.023438 C 52.675781 224.796875 52.472656 224.554688 52.296875 224.289062 C 52.121094 224.027344 51.972656 223.75 51.851562 223.457031 C 51.730469 223.164062 51.636719 222.859375 51.578125 222.550781 C 51.515625 222.238281 51.484375 221.925781 51.484375 221.609375 L 51.484375 106.621094 C 51.484375 106.304688 51.515625 105.988281 51.578125 105.679688 C 51.636719 105.367188 51.730469 105.066406 51.851562 104.773438 C 51.972656 104.480469 52.121094 104.199219 52.296875 103.9375 C 52.472656 103.671875 52.675781 103.429688 52.898438 103.207031 C 53.125 102.980469 53.367188 102.78125 53.632812 102.605469 C 53.894531 102.429688 54.171875 102.28125 54.464844 102.160156 C 54.757812 102.039062 55.0625 101.945312 55.371094 101.882812 C 55.683594 101.824219 56 101.792969 56.316406 101.792969 C 56.632812 101.792969 56.945312 101.824219 57.257812 101.882812 C 57.570312 101.945312 57.871094 102.039062 58.164062 102.160156 C 58.457031 102.28125 58.734375 102.429688 59 102.605469 C 59.261719 102.78125 59.507812 102.980469 59.730469 103.207031 C 59.957031 103.429688 60.15625 103.671875 60.332031 103.9375 C 60.507812 104.199219 60.65625 104.480469 60.777344 104.773438 C 60.902344 105.066406 60.992188 105.367188 61.054688 105.679688 C 61.117188 105.988281 61.148438 106.304688 61.148438 106.621094 L 61.148438 221.609375 C 61.148438 221.925781 61.117188 222.238281 61.054688 222.550781 C 60.992188 222.859375 60.902344 223.164062 60.777344 223.457031 C 60.65625 223.75 60.507812 224.027344 60.332031 224.289062 C 60.15625 224.554688 59.957031 224.796875 59.730469 225.023438 C 59.507812 225.246094 59.261719 225.445312 59 225.621094 C 58.734375 225.796875 58.457031 225.945312 58.164062 226.070312 C 57.871094 226.191406 57.570312 226.28125 57.257812 226.34375 C 56.945312 226.40625 56.632812 226.4375 56.316406 226.4375 Z M 56.316406 226.4375 " fill-opacity="1" fill-rule="nonzero"/><path fill="#f8f5bb" d="M 267.984375 165.886719 C 267.984375 167.210938 267.953125 168.535156 267.886719 169.859375 C 267.824219 171.179688 267.726562 172.5 267.597656 173.820312 C 267.464844 175.136719 267.304688 176.453125 267.109375 177.761719 C 266.914062 179.070312 266.6875 180.375 266.429688 181.675781 C 266.171875 182.972656 265.878906 184.265625 265.558594 185.550781 C 265.238281 186.835938 264.882812 188.109375 264.5 189.378906 C 264.113281 190.644531 263.699219 191.902344 263.25 193.148438 C 262.804688 194.398438 262.328125 195.632812 261.820312 196.855469 C 261.3125 198.078125 260.777344 199.289062 260.210938 200.488281 C 259.644531 201.683594 259.046875 202.867188 258.421875 204.035156 C 257.800781 205.203125 257.144531 206.355469 256.464844 207.492188 C 255.78125 208.628906 255.074219 209.746094 254.339844 210.847656 C 253.601562 211.949219 252.839844 213.03125 252.050781 214.09375 C 251.261719 215.15625 250.445312 216.203125 249.605469 217.226562 C 248.761719 218.25 247.898438 219.253906 247.007812 220.234375 C 246.117188 221.214844 245.203125 222.171875 244.265625 223.109375 C 243.328125 224.046875 242.371094 224.960938 241.386719 225.847656 C 240.40625 226.738281 239.402344 227.601562 238.378906 228.441406 C 237.355469 229.285156 236.308594 230.097656 235.246094 230.886719 C 234.179688 231.675781 233.097656 232.4375 231.996094 233.175781 C 230.894531 233.910156 229.773438 234.617188 228.636719 235.300781 C 227.5 235.980469 226.347656 236.632812 225.179688 237.257812 C 224.011719 237.882812 222.828125 238.476562 221.628906 239.042969 C 220.429688 239.609375 219.21875 240.144531 217.996094 240.652344 C 216.769531 241.160156 215.535156 241.636719 214.285156 242.082031 C 213.039062 242.527344 211.78125 242.945312 210.511719 243.328125 C 209.246094 243.710938 207.96875 244.066406 206.683594 244.386719 C 205.394531 244.710938 204.101562 245 202.804688 245.257812 C 201.503906 245.515625 200.199219 245.742188 198.886719 245.9375 C 197.578125 246.132812 196.261719 246.292969 194.941406 246.421875 C 193.625 246.550781 192.300781 246.648438 190.980469 246.714844 C 189.65625 246.78125 188.332031 246.8125 187.003906 246.8125 C 185.679688 246.8125 184.355469 246.78125 183.03125 246.714844 C 181.707031 246.648438 180.386719 246.550781 179.066406 246.421875 C 177.75 246.292969 176.433594 246.132812 175.121094 245.9375 C 173.8125 245.742188 172.507812 245.515625 171.207031 245.257812 C 169.90625 245 168.613281 244.710938 167.328125 244.386719 C 166.042969 244.066406 164.765625 243.710938 163.496094 243.328125 C 162.230469 242.945312 160.972656 242.527344 159.722656 242.082031 C 158.476562 241.636719 157.238281 241.160156 156.015625 240.652344 C 154.789062 240.144531 153.578125 239.609375 152.382812 239.042969 C 151.183594 238.476562 150 237.882812 148.832031 237.257812 C 147.664062 236.632812 146.507812 235.980469 145.371094 235.300781 C 144.234375 234.617188 143.117188 233.910156 142.015625 233.175781 C 140.914062 232.4375 139.828125 231.675781 138.765625 230.886719 C 137.699219 230.097656 136.65625 229.285156 135.632812 228.441406 C 134.605469 227.601562 133.605469 226.738281 132.621094 225.847656 C 131.640625 224.960938 130.679688 224.046875 129.742188 223.109375 C 128.804688 222.171875 127.890625 221.214844 127.003906 220.234375 C 126.113281 219.253906 125.246094 218.25 124.40625 217.226562 C 123.566406 216.203125 122.75 215.15625 121.960938 214.09375 C 121.171875 213.03125 120.410156 211.949219 119.671875 210.847656 C 118.9375 209.746094 118.226562 208.628906 117.546875 207.492188 C 116.863281 206.355469 116.210938 205.203125 115.585938 204.035156 C 114.960938 202.867188 114.367188 201.683594 113.800781 200.488281 C 113.234375 199.289062 112.695312 198.078125 112.1875 196.855469 C 111.679688 195.632812 111.203125 194.398438 110.757812 193.148438 C 110.3125 191.902344 109.894531 190.644531 109.511719 189.378906 C 109.125 188.109375 108.773438 186.835938 108.453125 185.550781 C 108.128906 184.265625 107.839844 182.972656 107.582031 181.675781 C 107.320312 180.375 107.09375 179.070312 106.902344 177.761719 C 106.707031 176.453125 106.542969 175.136719 106.414062 173.820312 C 106.285156 172.5 106.1875 171.179688 106.121094 169.859375 C 106.058594 168.535156 106.023438 167.210938 106.023438 165.886719 C 106.023438 164.5625 106.058594 163.238281 106.121094 161.917969 C 106.1875 160.59375 106.285156 159.273438 106.414062 157.957031 C 106.542969 156.636719 106.707031 155.324219 106.902344 154.011719 C 107.09375 152.703125 107.320312 151.398438 107.582031 150.097656 C 107.839844 148.800781 108.128906 147.507812 108.453125 146.222656 C 108.773438 144.9375 109.125 143.664062 109.511719 142.394531 C 109.894531 141.128906 110.3125 139.871094 110.757812 138.625 C 111.203125 137.378906 111.679688 136.140625 112.1875 134.917969 C 112.695312 133.695312 113.234375 132.484375 113.800781 131.289062 C 114.367188 130.089844 114.960938 128.90625 115.585938 127.738281 C 116.210938 126.570312 116.863281 125.417969 117.546875 124.285156 C 118.226562 123.148438 118.9375 122.027344 119.671875 120.925781 C 120.410156 119.828125 121.171875 118.742188 121.960938 117.679688 C 122.75 116.617188 123.566406 115.574219 124.40625 114.546875 C 125.246094 113.523438 126.113281 112.523438 127.003906 111.542969 C 127.890625 110.558594 128.804688 109.601562 129.742188 108.664062 C 130.679688 107.726562 131.640625 106.816406 132.621094 105.925781 C 133.605469 105.035156 134.605469 104.171875 135.632812 103.332031 C 136.65625 102.492188 137.699219 101.675781 138.765625 100.886719 C 139.828125 100.097656 140.914062 99.335938 142.015625 98.601562 C 143.117188 97.863281 144.234375 97.15625 145.371094 96.476562 C 146.507812 95.792969 147.664062 95.140625 148.832031 94.515625 C 150 93.894531 151.183594 93.296875 152.382812 92.730469 C 153.578125 92.164062 154.789062 91.628906 156.015625 91.121094 C 157.238281 90.617188 158.476562 90.140625 159.722656 89.691406 C 160.972656 89.246094 162.230469 88.832031 163.496094 88.445312 C 164.765625 88.0625 166.042969 87.710938 167.328125 87.386719 C 168.613281 87.066406 169.90625 86.773438 171.207031 86.515625 C 172.507812 86.257812 173.8125 86.03125 175.121094 85.839844 C 176.433594 85.644531 177.75 85.480469 179.066406 85.351562 C 180.386719 85.222656 181.707031 85.125 183.03125 85.058594 C 184.355469 84.996094 185.679688 84.960938 187.003906 84.960938 C 188.332031 84.960938 189.65625 84.996094 190.980469 85.058594 C 192.300781 85.125 193.625 85.222656 194.941406 85.351562 C 196.261719 85.480469 197.578125 85.644531 198.886719 85.839844 C 200.199219 86.03125 201.503906 86.257812 202.804688 86.515625 C 204.101562 86.773438 205.394531 87.066406 206.683594 87.386719 C 207.96875 87.710938 209.246094 88.0625 210.511719 88.445312 C 211.78125 88.832031 213.039062 89.246094 214.285156 89.691406 C 215.535156 90.140625 216.769531 90.617188 217.996094 91.121094 C 219.21875 91.628906 220.429688 92.164062 221.628906 92.730469 C 222.828125 93.296875 224.011719 93.894531 225.179688 94.515625 C 226.347656 95.140625 227.5 95.792969 228.636719 96.476562 C 229.773438 97.15625 230.894531 97.863281 231.996094 98.601562 C 233.097656 99.335938 234.179688 100.097656 235.246094 100.886719 C 236.308594 101.675781 237.355469 102.492188 238.378906 103.332031 C 239.402344 104.171875 240.40625 105.035156 241.386719 105.925781 C 242.371094 106.816406 243.328125 107.726562 244.265625 108.664062 C 245.203125 109.601562 246.117188 110.558594 247.007812 111.542969 C 247.898438 112.523438 248.761719 113.523438 249.605469 114.546875 C 250.445312 115.574219 251.261719 116.617188 252.050781 117.679688 C 252.839844 118.742188 253.601562 119.828125 254.339844 120.925781 C 255.074219 122.027344 255.78125 123.148438 256.464844 124.285156 C 257.144531 125.417969 257.796875 126.570312 258.421875 127.738281 C 259.046875 128.90625 259.644531 130.089844 260.210938 131.289062 C 260.777344 132.484375 261.3125 133.695312 261.820312 134.917969 C 262.328125 136.140625 262.804688 137.378906 263.25 138.625 C 263.699219 139.871094 264.113281 141.128906 264.5 142.394531 C 264.882812 143.664062 265.238281 144.9375 265.558594 146.222656 C 265.878906 147.507812 266.171875 148.800781 266.429688 150.097656 C 266.6875 151.398438 266.914062 152.703125 267.109375 154.011719 C 267.304688 155.324219 267.464844 156.636719 267.597656 157.957031 C 267.726562 159.273438 267.824219 160.59375 267.886719 161.917969 C 267.953125 163.238281 267.984375 164.5625 267.984375 165.886719 Z M 267.984375 165.886719 " fill-opacity="1" fill-rule="nonzero"/><path fill="#c4e5f2" d="M 130.664062 156.695312 C 136.816406 116.257812 174.898438 87.84375 218.5625 88.96875 C 217.195312 88.390625 215.8125 87.851562 214.414062 87.347656 C 213.015625 86.847656 211.601562 86.382812 210.179688 85.957031 C 208.753906 85.53125 207.320312 85.148438 205.875 84.800781 C 204.429688 84.453125 202.976562 84.148438 201.511719 83.882812 C 200.050781 83.617188 198.582031 83.390625 197.109375 83.207031 C 195.632812 83.019531 194.15625 82.875 192.671875 82.773438 C 191.1875 82.667969 189.703125 82.605469 188.21875 82.582031 C 186.734375 82.558594 185.246094 82.578125 183.761719 82.636719 C 182.277344 82.699219 180.792969 82.796875 179.316406 82.9375 C 177.835938 83.078125 176.359375 83.261719 174.890625 83.484375 C 173.421875 83.707031 171.960938 83.96875 170.503906 84.269531 C 169.050781 84.574219 167.605469 84.914062 166.167969 85.296875 C 164.730469 85.679688 163.304688 86.101562 161.894531 86.5625 C 160.480469 87.023438 159.082031 87.519531 157.695312 88.058594 C 156.308594 88.597656 154.941406 89.171875 153.585938 89.785156 C 152.234375 90.398438 150.898438 91.046875 149.578125 91.734375 C 148.261719 92.417969 146.960938 93.140625 145.683594 93.898438 C 144.40625 94.65625 143.148438 95.449219 141.914062 96.277344 C 140.679688 97.101562 139.46875 97.964844 138.28125 98.855469 C 137.09375 99.75 135.933594 100.675781 134.796875 101.632812 C 133.660156 102.589844 132.550781 103.578125 131.46875 104.597656 C 130.386719 105.617188 129.335938 106.664062 128.3125 107.738281 C 127.285156 108.816406 126.292969 109.921875 125.328125 111.050781 C 124.367188 112.183594 123.433594 113.339844 122.535156 114.519531 C 121.636719 115.703125 120.769531 116.910156 119.9375 118.140625 C 119.101562 119.371094 118.304688 120.621094 117.539062 121.894531 C 116.777344 123.167969 116.046875 124.464844 115.355469 125.777344 C 114.660156 127.089844 114.003906 128.421875 113.386719 129.773438 C 112.765625 131.125 112.183594 132.488281 111.640625 133.871094 C 111.097656 135.253906 110.589844 136.648438 110.125 138.058594 C 109.65625 139.46875 109.226562 140.890625 108.839844 142.324219 C 108.449219 143.757812 108.101562 145.203125 107.792969 146.65625 C 107.480469 148.105469 107.210938 149.566406 106.984375 151.035156 C 106.753906 152.503906 106.566406 153.976562 106.417969 155.453125 C 106.269531 156.929688 106.164062 158.410156 106.097656 159.894531 C 106.03125 161.378906 106.003906 162.863281 106.019531 164.347656 C 106.035156 165.832031 106.09375 167.316406 106.1875 168.800781 C 106.285156 170.28125 106.425781 171.761719 106.601562 173.234375 C 106.78125 174.710938 107 176.175781 107.261719 177.640625 C 107.519531 179.101562 107.820312 180.554688 108.160156 182.003906 C 108.5 183.449219 108.878906 184.882812 109.296875 186.308594 C 109.714844 187.734375 110.171875 189.148438 110.667969 190.546875 C 111.167969 191.945312 111.699219 193.332031 112.273438 194.703125 C 112.847656 196.074219 113.457031 197.425781 114.105469 198.761719 C 114.75 200.101562 115.4375 201.417969 116.15625 202.71875 C 116.875 204.015625 117.632812 205.296875 118.421875 206.554688 C 119.210938 207.8125 120.035156 209.046875 120.894531 210.257812 C 121.753906 211.472656 122.644531 212.660156 123.570312 213.824219 C 124.492188 214.984375 125.449219 216.121094 126.433594 217.234375 C 127.421875 218.34375 128.4375 219.425781 129.484375 220.480469 C 130.53125 221.535156 131.605469 222.5625 132.707031 223.558594 C 133.8125 224.554688 134.941406 225.519531 136.097656 226.453125 C 137.253906 227.386719 138.433594 228.285156 139.636719 229.15625 C 140.84375 230.023438 142.074219 230.859375 143.324219 231.660156 C 144.574219 232.460938 145.847656 233.226562 147.140625 233.957031 C 148.4375 234.6875 149.75 235.382812 151.082031 236.042969 C 152.414062 236.703125 153.761719 237.324219 155.128906 237.90625 C 156.496094 238.492188 157.875 239.039062 159.273438 239.546875 C 160.667969 240.054688 162.078125 240.527344 163.5 240.957031 C 164.921875 241.386719 166.355469 241.78125 167.800781 242.132812 C 169.242188 242.484375 170.695312 242.796875 172.15625 243.070312 C 173.617188 243.339844 175.085938 243.574219 176.558594 243.765625 C 178.035156 243.957031 179.511719 244.105469 180.992188 244.21875 C 182.476562 244.328125 183.960938 244.398438 185.445312 244.425781 C 148.519531 229.921875 124.964844 194.167969 130.664062 156.695312 Z M 130.664062 156.695312 " fill-opacity="1" fill-rule="nonzero"/><path fill="#231f20" d="M 187.003906 251.640625 C 139.6875 251.640625 101.191406 213.171875 101.191406 165.886719 C 101.191406 118.601562 139.6875 80.132812 187.003906 80.132812 C 234.324219 80.132812 272.816406 118.605469 272.816406 165.886719 C 272.816406 213.171875 234.324219 251.640625 187.003906 251.640625 Z M 187.003906 89.789062 C 185.757812 89.789062 184.511719 89.820312 183.269531 89.882812 C 182.023438 89.941406 180.78125 90.035156 179.542969 90.15625 C 178.300781 90.277344 177.0625 90.429688 175.832031 90.613281 C 174.597656 90.796875 173.371094 91.007812 172.148438 91.25 C 170.925781 91.496094 169.710938 91.765625 168.503906 92.070312 C 167.292969 92.371094 166.09375 92.703125 164.898438 93.066406 C 163.707031 93.429688 162.523438 93.820312 161.351562 94.238281 C 160.175781 94.65625 159.015625 95.105469 157.863281 95.582031 C 156.710938 96.058594 155.574219 96.5625 154.445312 97.097656 C 153.320312 97.628906 152.207031 98.1875 151.109375 98.773438 C 150.007812 99.363281 148.925781 99.976562 147.855469 100.617188 C 146.785156 101.257812 145.734375 101.921875 144.699219 102.613281 C 143.660156 103.304688 142.644531 104.023438 141.640625 104.765625 C 140.640625 105.507812 139.660156 106.273438 138.695312 107.0625 C 137.734375 107.851562 136.789062 108.667969 135.867188 109.503906 C 134.941406 110.339844 134.039062 111.199219 133.160156 112.078125 C 132.277344 112.957031 131.417969 113.859375 130.582031 114.78125 C 129.746094 115.707031 128.929688 116.648438 128.140625 117.613281 C 127.347656 118.574219 126.582031 119.554688 125.839844 120.554688 C 125.097656 121.554688 124.378906 122.574219 123.6875 123.609375 C 122.996094 124.644531 122.328125 125.695312 121.6875 126.765625 C 121.046875 127.832031 120.433594 128.917969 119.847656 130.015625 C 119.257812 131.113281 118.699219 132.226562 118.167969 133.351562 C 117.632812 134.476562 117.128906 135.617188 116.652344 136.765625 C 116.175781 137.917969 115.726562 139.078125 115.304688 140.25 C 114.886719 141.421875 114.496094 142.605469 114.132812 143.796875 C 113.773438 144.988281 113.441406 146.1875 113.136719 147.398438 C 112.835938 148.605469 112.5625 149.820312 112.316406 151.042969 C 112.074219 152.261719 111.863281 153.488281 111.679688 154.722656 C 111.496094 155.953125 111.34375 157.1875 111.222656 158.429688 C 111.097656 159.667969 111.007812 160.910156 110.945312 162.152344 C 110.886719 163.398438 110.855469 164.640625 110.855469 165.886719 C 110.855469 167.132812 110.886719 168.378906 110.945312 169.621094 C 111.007812 170.863281 111.097656 172.105469 111.222656 173.347656 C 111.34375 174.585938 111.496094 175.820312 111.679688 177.054688 C 111.863281 178.285156 112.074219 179.511719 112.316406 180.734375 C 112.5625 181.953125 112.835938 183.167969 113.136719 184.378906 C 113.441406 185.585938 113.773438 186.785156 114.132812 187.976562 C 114.496094 189.167969 114.886719 190.351562 115.304688 191.523438 C 115.726562 192.695312 116.175781 193.859375 116.652344 195.007812 C 117.128906 196.160156 117.632812 197.296875 118.164062 198.421875 C 118.699219 199.550781 119.257812 200.660156 119.847656 201.757812 C 120.433594 202.859375 121.046875 203.941406 121.6875 205.007812 C 122.328125 206.078125 122.996094 207.128906 123.6875 208.164062 C 124.378906 209.199219 125.097656 210.21875 125.839844 211.21875 C 126.582031 212.21875 127.347656 213.199219 128.140625 214.164062 C 128.929688 215.125 129.746094 216.070312 130.582031 216.992188 C 131.417969 217.914062 132.277344 218.816406 133.160156 219.695312 C 134.039062 220.578125 134.941406 221.433594 135.867188 222.273438 C 136.789062 223.109375 137.730469 223.921875 138.695312 224.710938 C 139.660156 225.5 140.640625 226.269531 141.640625 227.007812 C 142.644531 227.75 143.660156 228.46875 144.699219 229.160156 C 145.734375 229.851562 146.785156 230.519531 147.855469 231.160156 C 148.925781 231.796875 150.007812 232.414062 151.109375 233 C 152.207031 233.585938 153.320312 234.144531 154.445312 234.679688 C 155.574219 235.210938 156.710938 235.714844 157.863281 236.191406 C 159.015625 236.667969 160.175781 237.117188 161.351562 237.535156 C 162.523438 237.957031 163.707031 238.347656 164.898438 238.707031 C 166.09375 239.070312 167.292969 239.402344 168.5 239.703125 C 169.710938 240.007812 170.925781 240.28125 172.148438 240.523438 C 173.371094 240.765625 174.597656 240.980469 175.832031 241.160156 C 177.0625 241.34375 178.300781 241.496094 179.539062 241.617188 C 180.78125 241.742188 182.023438 241.832031 183.269531 241.894531 C 184.511719 241.953125 185.757812 241.984375 187.003906 241.984375 C 188.25 241.984375 189.496094 241.953125 190.742188 241.894531 C 191.984375 241.832031 193.226562 241.742188 194.46875 241.617188 C 195.707031 241.496094 196.945312 241.34375 198.179688 241.160156 C 199.410156 240.980469 200.636719 240.765625 201.859375 240.523438 C 203.082031 240.28125 204.296875 240.007812 205.507812 239.703125 C 206.714844 239.402344 207.917969 239.070312 209.109375 238.707031 C 210.300781 238.347656 211.484375 237.957031 212.660156 237.535156 C 213.832031 237.117188 214.996094 236.667969 216.144531 236.191406 C 217.296875 235.714844 218.4375 235.210938 219.5625 234.679688 C 220.6875 234.144531 221.800781 233.585938 222.902344 233 C 224 232.414062 225.085938 231.796875 226.152344 231.160156 C 227.222656 230.519531 228.273438 229.851562 229.3125 229.160156 C 230.347656 228.46875 231.367188 227.75 232.367188 227.007812 C 233.367188 226.269531 234.351562 225.5 235.3125 224.710938 C 236.277344 223.921875 237.21875 223.109375 238.144531 222.273438 C 239.066406 221.4375 239.96875 220.578125 240.851562 219.695312 C 241.730469 218.816406 242.589844 217.914062 243.425781 216.992188 C 244.265625 216.070312 245.078125 215.125 245.867188 214.164062 C 246.660156 213.199219 247.425781 212.21875 248.167969 211.21875 C 248.910156 210.21875 249.628906 209.199219 250.320312 208.164062 C 251.011719 207.128906 251.679688 206.078125 252.320312 205.007812 C 252.960938 203.941406 253.574219 202.859375 254.164062 201.757812 C 254.75 200.660156 255.308594 199.550781 255.84375 198.421875 C 256.375 197.296875 256.878906 196.160156 257.359375 195.007812 C 257.835938 193.859375 258.28125 192.695312 258.703125 191.523438 C 259.121094 190.351562 259.511719 189.167969 259.875 187.976562 C 260.238281 186.785156 260.570312 185.585938 260.871094 184.378906 C 261.175781 183.167969 261.449219 181.953125 261.691406 180.734375 C 261.933594 179.511719 262.148438 178.285156 262.328125 177.054688 C 262.511719 175.820312 262.664062 174.585938 262.789062 173.347656 C 262.910156 172.105469 263 170.863281 263.0625 169.621094 C 263.125 168.378906 263.152344 167.132812 263.152344 165.886719 C 263.152344 164.640625 263.121094 163.398438 263.058594 162.15625 C 262.996094 160.910156 262.902344 159.671875 262.78125 158.429688 C 262.65625 157.191406 262.503906 155.957031 262.320312 154.726562 C 262.136719 153.496094 261.921875 152.269531 261.675781 151.046875 C 261.433594 149.828125 261.160156 148.613281 260.855469 147.40625 C 260.550781 146.199219 260.21875 145 259.855469 143.808594 C 259.492188 142.617188 259.101562 141.433594 258.679688 140.261719 C 258.261719 139.089844 257.8125 137.929688 257.335938 136.78125 C 256.855469 135.628906 256.351562 134.492188 255.820312 133.367188 C 255.285156 132.242188 254.726562 131.128906 254.136719 130.03125 C 253.550781 128.933594 252.933594 127.851562 252.292969 126.785156 C 251.652344 125.714844 250.988281 124.664062 250.292969 123.628906 C 249.601562 122.59375 248.882812 121.578125 248.140625 120.578125 C 247.398438 119.578125 246.632812 118.597656 245.84375 117.632812 C 245.050781 116.671875 244.238281 115.730469 243.402344 114.808594 C 242.566406 113.886719 241.707031 112.984375 240.824219 112.101562 C 239.945312 111.222656 239.042969 110.363281 238.121094 109.527344 C 237.195312 108.691406 236.253906 107.878906 235.289062 107.089844 C 234.328125 106.300781 233.347656 105.535156 232.34375 104.792969 C 231.34375 104.050781 230.328125 103.332031 229.289062 102.640625 C 228.253906 101.949219 227.203125 101.28125 226.136719 100.640625 C 225.066406 100 223.984375 99.386719 222.882812 98.800781 C 221.785156 98.214844 220.675781 97.652344 219.546875 97.121094 C 218.421875 96.585938 217.285156 96.082031 216.132812 95.605469 C 214.980469 95.128906 213.820312 94.679688 212.648438 94.257812 C 211.476562 93.839844 210.292969 93.449219 209.101562 93.085938 C 207.910156 92.722656 206.707031 92.390625 205.5 92.085938 C 204.292969 91.785156 203.078125 91.511719 201.855469 91.265625 C 200.632812 91.023438 199.40625 90.808594 198.175781 90.625 C 196.941406 90.441406 195.707031 90.289062 194.464844 90.164062 C 193.226562 90.039062 191.984375 89.949219 190.742188 89.886719 C 189.496094 89.824219 188.25 89.792969 187.003906 89.789062 Z M 187.003906 89.789062 " fill-opacity="1" fill-rule="nonzero"/><path fill="#f5929f" d="M 285.023438 100.792969 L 318.683594 100.792969 L 318.683594 119.589844 L 285.023438 119.589844 Z M 285.023438 100.792969 " fill-opacity="1" fill-rule="nonzero"/><path fill="#231f20" d="M 325.617188 115.027344 L 287.265625 115.027344 L 287.265625 106.382812 L 325.617188 106.382812 C 325.933594 106.382812 326.246094 106.351562 326.558594 106.289062 C 326.867188 106.226562 327.171875 106.136719 327.464844 106.015625 C 327.757812 105.894531 328.035156 105.746094 328.300781 105.566406 C 328.5625 105.390625 328.808594 105.191406 329.03125 104.96875 C 329.257812 104.742188 329.457031 104.5 329.632812 104.234375 C 329.808594 103.972656 329.957031 103.695312 330.078125 103.402344 C 330.199219 103.109375 330.292969 102.804688 330.355469 102.496094 C 330.414062 102.183594 330.445312 101.871094 330.445312 101.554688 C 330.445312 101.238281 330.414062 100.921875 330.355469 100.613281 C 330.292969 100.300781 330.199219 100 330.078125 99.707031 C 329.957031 99.414062 329.808594 99.136719 329.632812 98.871094 C 329.457031 98.609375 329.257812 98.363281 329.03125 98.140625 C 328.808594 97.914062 328.5625 97.714844 328.300781 97.539062 C 328.035156 97.363281 327.757812 97.214844 327.464844 97.09375 C 327.171875 96.972656 326.867188 96.878906 326.558594 96.816406 C 326.246094 96.757812 325.933594 96.726562 325.617188 96.726562 L 282.433594 96.726562 C 282.117188 96.726562 281.800781 96.757812 281.492188 96.816406 C 281.179688 96.878906 280.878906 96.972656 280.585938 97.09375 C 280.292969 97.214844 280.011719 97.363281 279.75 97.539062 C 279.484375 97.714844 279.242188 97.914062 279.015625 98.140625 C 278.792969 98.363281 278.59375 98.609375 278.414062 98.871094 C 278.238281 99.136719 278.089844 99.414062 277.96875 99.707031 C 277.847656 100 277.757812 100.300781 277.695312 100.613281 C 277.632812 100.921875 277.601562 101.238281 277.601562 101.554688 L 277.601562 119.855469 C 277.601562 120.175781 277.632812 120.488281 277.695312 120.800781 C 277.757812 121.109375 277.847656 121.410156 277.96875 121.703125 C 278.089844 121.996094 278.238281 122.277344 278.414062 122.539062 C 278.59375 122.804688 278.792969 123.046875 279.015625 123.269531 C 279.242188 123.496094 279.484375 123.695312 279.75 123.871094 C 280.011719 124.046875 280.292969 124.195312 280.585938 124.316406 C 280.878906 124.4375 281.179688 124.53125 281.492188 124.59375 C 281.800781 124.65625 282.117188 124.683594 282.433594 124.683594 L 325.617188 124.683594 C 325.933594 124.683594 326.246094 124.65625 326.558594 124.59375 C 326.867188 124.53125 327.171875 124.4375 327.464844 124.316406 C 327.757812 124.195312 328.035156 124.046875 328.300781 123.871094 C 328.5625 123.695312 328.808594 123.496094 329.03125 123.269531 C 329.257812 123.046875 329.457031 122.804688 329.632812 122.539062 C 329.808594 122.277344 329.957031 121.996094 330.078125 121.703125 C 330.199219 121.410156 330.292969 121.109375 330.355469 120.800781 C 330.414062 120.488281 330.445312 120.175781 330.445312 119.855469 C 330.445312 119.539062 330.414062 119.226562 330.355469 118.914062 C 330.292969 118.605469 330.199219 118.300781 330.078125 118.007812 C 329.957031 117.714844 329.808594 117.4375 329.632812 117.175781 C 329.457031 116.910156 329.257812 116.667969 329.03125 116.441406 C 328.808594 116.21875 328.5625 116.019531 328.300781 115.84375 C 328.035156 115.667969 327.757812 115.519531 327.464844 115.394531 C 327.171875 115.273438 326.867188 115.183594 326.558594 115.121094 C 326.246094 115.058594 325.933594 115.027344 325.617188 115.027344 Z M 325.617188 115.027344 " fill-opacity="1" fill-rule="nonzero"/><path fill="#f8f5bb" d="M 317.886719 177.964844 C 317.886719 178.875 317.796875 179.777344 317.617188 180.667969 C 317.441406 181.558594 317.179688 182.425781 316.832031 183.265625 C 316.480469 184.105469 316.054688 184.90625 315.550781 185.660156 C 315.042969 186.417969 314.46875 187.117188 313.824219 187.761719 C 313.183594 188.402344 312.480469 188.976562 311.726562 189.480469 C 310.96875 189.988281 310.167969 190.414062 309.328125 190.761719 C 308.488281 191.109375 307.621094 191.375 306.726562 191.550781 C 305.835938 191.726562 304.933594 191.816406 304.023438 191.816406 C 303.113281 191.816406 302.210938 191.726562 301.320312 191.550781 C 300.425781 191.375 299.5625 191.109375 298.71875 190.761719 C 297.878906 190.414062 297.082031 189.988281 296.324219 189.480469 C 295.566406 188.976562 294.867188 188.402344 294.222656 187.761719 C 293.578125 187.117188 293.003906 186.417969 292.5 185.660156 C 291.992188 184.90625 291.566406 184.105469 291.21875 183.265625 C 290.871094 182.425781 290.605469 181.558594 290.429688 180.667969 C 290.25 179.777344 290.164062 178.875 290.164062 177.964844 C 290.164062 177.054688 290.25 176.15625 290.429688 175.261719 C 290.605469 174.371094 290.871094 173.503906 291.21875 172.664062 C 291.566406 171.824219 291.992188 171.027344 292.5 170.269531 C 293.003906 169.511719 293.578125 168.8125 294.222656 168.171875 C 294.867188 167.527344 295.566406 166.953125 296.324219 166.449219 C 297.082031 165.941406 297.878906 165.515625 298.71875 165.167969 C 299.5625 164.820312 300.425781 164.558594 301.320312 164.378906 C 302.210938 164.203125 303.113281 164.113281 304.023438 164.113281 C 304.933594 164.113281 305.835938 164.203125 306.726562 164.378906 C 307.621094 164.558594 308.488281 164.820312 309.328125 165.167969 C 310.167969 165.515625 310.96875 165.941406 311.726562 166.449219 C 312.480469 166.953125 313.183594 167.527344 313.824219 168.171875 C 314.46875 168.8125 315.042969 169.511719 315.550781 170.269531 C 316.054688 171.027344 316.480469 171.824219 316.832031 172.664062 C 317.179688 173.503906 317.441406 174.371094 317.617188 175.261719 C 317.796875 176.15625 317.886719 177.054688 317.886719 177.964844 Z M 317.886719 177.964844 " fill-opacity="1" fill-rule="nonzero"/><path fill="#231f20" d="M 304.027344 196.644531 C 303.414062 196.644531 302.804688 196.613281 302.195312 196.554688 C 301.585938 196.496094 300.980469 196.40625 300.378906 196.285156 C 299.777344 196.167969 299.1875 196.019531 298.601562 195.839844 C 298.015625 195.664062 297.4375 195.457031 296.871094 195.222656 C 296.308594 194.988281 295.753906 194.726562 295.214844 194.4375 C 294.675781 194.152344 294.148438 193.835938 293.640625 193.496094 C 293.132812 193.15625 292.640625 192.792969 292.167969 192.40625 C 291.695312 192.015625 291.242188 191.605469 290.808594 191.171875 C 290.375 190.742188 289.964844 190.289062 289.574219 189.816406 C 289.1875 189.34375 288.824219 188.851562 288.484375 188.34375 C 288.144531 187.835938 287.828125 187.308594 287.539062 186.769531 C 287.25 186.230469 286.988281 185.679688 286.753906 185.113281 C 286.519531 184.546875 286.316406 183.972656 286.136719 183.386719 C 285.960938 182.800781 285.8125 182.207031 285.691406 181.609375 C 285.574219 181.007812 285.484375 180.40625 285.421875 179.796875 C 285.363281 179.1875 285.332031 178.578125 285.332031 177.964844 C 285.332031 177.351562 285.363281 176.742188 285.421875 176.132812 C 285.484375 175.523438 285.574219 174.921875 285.691406 174.320312 C 285.8125 173.71875 285.960938 173.128906 286.136719 172.542969 C 286.316406 171.957031 286.519531 171.382812 286.753906 170.816406 C 286.988281 170.25 287.25 169.699219 287.539062 169.160156 C 287.828125 168.621094 288.144531 168.09375 288.484375 167.585938 C 288.824219 167.078125 289.1875 166.585938 289.574219 166.113281 C 289.964844 165.640625 290.375 165.1875 290.808594 164.757812 C 291.242188 164.324219 291.695312 163.914062 292.167969 163.523438 C 292.640625 163.136719 293.132812 162.773438 293.640625 162.433594 C 294.148438 162.09375 294.671875 161.777344 295.214844 161.492188 C 295.753906 161.203125 296.304688 160.941406 296.871094 160.707031 C 297.4375 160.472656 298.011719 160.265625 298.597656 160.089844 C 299.183594 159.910156 299.777344 159.761719 300.378906 159.644531 C 300.980469 159.523438 301.585938 159.433594 302.191406 159.375 C 302.800781 159.316406 303.414062 159.285156 304.027344 159.285156 C 304.636719 159.285156 305.25 159.316406 305.859375 159.375 C 306.46875 159.433594 307.070312 159.523438 307.671875 159.644531 C 308.273438 159.761719 308.867188 159.910156 309.453125 160.089844 C 310.039062 160.265625 310.613281 160.472656 311.179688 160.707031 C 311.746094 160.941406 312.296875 161.203125 312.835938 161.492188 C 313.378906 161.777344 313.902344 162.09375 314.410156 162.433594 C 314.917969 162.773438 315.410156 163.136719 315.882812 163.523438 C 316.359375 163.914062 316.8125 164.324219 317.242188 164.757812 C 317.675781 165.1875 318.085938 165.640625 318.476562 166.113281 C 318.863281 166.585938 319.226562 167.078125 319.566406 167.585938 C 319.910156 168.09375 320.222656 168.621094 320.511719 169.160156 C 320.800781 169.699219 321.0625 170.25 321.296875 170.816406 C 321.53125 171.382812 321.734375 171.957031 321.914062 172.542969 C 322.089844 173.128906 322.238281 173.722656 322.359375 174.320312 C 322.480469 174.921875 322.566406 175.523438 322.628906 176.132812 C 322.6875 176.742188 322.71875 177.351562 322.71875 177.964844 C 322.71875 178.578125 322.6875 179.1875 322.625 179.796875 C 322.566406 180.402344 322.476562 181.007812 322.355469 181.609375 C 322.234375 182.207031 322.085938 182.800781 321.910156 183.386719 C 321.730469 183.96875 321.523438 184.546875 321.289062 185.109375 C 321.054688 185.675781 320.792969 186.226562 320.503906 186.765625 C 320.214844 187.304688 319.902344 187.828125 319.5625 188.335938 C 319.222656 188.847656 318.855469 189.335938 318.46875 189.808594 C 318.082031 190.28125 317.667969 190.734375 317.238281 191.167969 C 316.804688 191.597656 316.351562 192.011719 315.878906 192.398438 C 315.40625 192.785156 314.914062 193.148438 314.40625 193.488281 C 313.898438 193.828125 313.371094 194.144531 312.832031 194.433594 C 312.292969 194.722656 311.742188 194.984375 311.175781 195.21875 C 310.609375 195.449219 310.035156 195.65625 309.449219 195.835938 C 308.863281 196.011719 308.269531 196.164062 307.671875 196.28125 C 307.070312 196.402344 306.464844 196.492188 305.859375 196.550781 C 305.25 196.613281 304.636719 196.644531 304.027344 196.644531 Z M 304.027344 168.941406 C 303.433594 168.941406 302.847656 169 302.265625 169.117188 C 301.683594 169.230469 301.117188 169.402344 300.570312 169.628906 C 300.023438 169.855469 299.503906 170.132812 299.007812 170.460938 C 298.515625 170.792969 298.058594 171.164062 297.640625 171.585938 C 297.222656 172.003906 296.847656 172.460938 296.519531 172.953125 C 296.1875 173.445312 295.910156 173.964844 295.683594 174.511719 C 295.457031 175.058594 295.285156 175.625 295.167969 176.203125 C 295.054688 176.785156 294.996094 177.371094 294.996094 177.964844 C 294.996094 178.558594 295.054688 179.144531 295.167969 179.726562 C 295.285156 180.308594 295.457031 180.871094 295.683594 181.417969 C 295.910156 181.964844 296.1875 182.484375 296.515625 182.980469 C 296.847656 183.472656 297.222656 183.925781 297.640625 184.347656 C 298.058594 184.765625 298.515625 185.140625 299.007812 185.46875 C 299.5 185.796875 300.023438 186.074219 300.570312 186.300781 C 301.117188 186.527344 301.683594 186.699219 302.265625 186.816406 C 302.84375 186.929688 303.433594 186.988281 304.023438 186.988281 C 304.617188 186.988281 305.207031 186.929688 305.785156 186.816406 C 306.367188 186.699219 306.933594 186.527344 307.480469 186.300781 C 308.027344 186.074219 308.550781 185.796875 309.042969 185.46875 C 309.535156 185.140625 309.992188 184.765625 310.410156 184.347656 C 310.828125 183.925781 311.203125 183.472656 311.535156 182.980469 C 311.863281 182.488281 312.140625 181.964844 312.367188 181.417969 C 312.59375 180.871094 312.765625 180.308594 312.882812 179.726562 C 312.996094 179.144531 313.054688 178.558594 313.054688 177.964844 C 313.054688 177.375 312.996094 176.785156 312.878906 176.207031 C 312.765625 175.625 312.59375 175.0625 312.363281 174.515625 C 312.136719 173.96875 311.859375 173.449219 311.53125 172.953125 C 311.199219 172.460938 310.828125 172.007812 310.40625 171.589844 C 309.988281 171.167969 309.53125 170.796875 309.039062 170.464844 C 308.546875 170.136719 308.027344 169.859375 307.480469 169.632812 C 306.933594 169.40625 306.367188 169.234375 305.785156 169.117188 C 305.207031 169 304.617188 168.941406 304.027344 168.941406 Z M 304.027344 168.941406 " fill-opacity="1" fill-rule="nonzero"/><path fill="#231f20" d="M 344.546875 268.871094 L 84.996094 268.871094 C 84.679688 268.871094 84.367188 268.839844 84.054688 268.777344 C 83.742188 268.714844 83.441406 268.625 83.148438 268.503906 C 82.855469 268.382812 82.578125 268.234375 82.3125 268.058594 C 82.050781 267.882812 81.804688 267.679688 81.582031 267.457031 C 81.355469 267.234375 81.15625 266.988281 80.980469 266.726562 C 80.804688 266.460938 80.65625 266.183594 80.535156 265.890625 C 80.414062 265.597656 80.320312 265.296875 80.257812 264.984375 C 80.195312 264.671875 80.164062 264.359375 80.164062 264.042969 C 80.164062 263.726562 80.195312 263.410156 80.257812 263.101562 C 80.320312 262.789062 80.414062 262.488281 80.535156 262.195312 C 80.65625 261.902344 80.804688 261.625 80.980469 261.359375 C 81.15625 261.097656 81.355469 260.851562 81.582031 260.628906 C 81.804688 260.40625 82.050781 260.203125 82.3125 260.027344 C 82.578125 259.851562 82.855469 259.703125 83.148438 259.582031 C 83.441406 259.460938 83.742188 259.371094 84.054688 259.308594 C 84.367188 259.246094 84.679688 259.214844 84.996094 259.214844 L 344.546875 259.214844 C 344.863281 259.214844 345.175781 259.246094 345.488281 259.308594 C 345.800781 259.371094 346.101562 259.460938 346.394531 259.582031 C 346.6875 259.703125 346.964844 259.851562 347.230469 260.027344 C 347.492188 260.203125 347.738281 260.40625 347.960938 260.628906 C 348.1875 260.851562 348.386719 261.097656 348.5625 261.359375 C 348.738281 261.625 348.886719 261.902344 349.011719 262.195312 C 349.132812 262.488281 349.222656 262.789062 349.285156 263.101562 C 349.347656 263.410156 349.378906 263.726562 349.378906 264.042969 C 349.378906 264.359375 349.347656 264.671875 349.285156 264.984375 C 349.222656 265.296875 349.132812 265.597656 349.011719 265.890625 C 348.886719 266.183594 348.738281 266.460938 348.5625 266.726562 C 348.386719 266.988281 348.1875 267.234375 347.960938 267.457031 C 347.738281 267.679688 347.492188 267.882812 347.230469 268.058594 C 346.964844 268.234375 346.6875 268.382812 346.394531 268.503906 C 346.101562 268.625 345.800781 268.714844 345.488281 268.777344 C 345.175781 268.839844 344.863281 268.871094 344.546875 268.871094 Z M 344.546875 268.871094 " fill-opacity="1" fill-rule="nonzero"/><path fill="#f5929f" d="M 244.007812 333.894531 L 228.902344 307.746094 L 146.097656 307.746094 L 130.992188 333.894531 Z M 244.007812 333.894531 " fill-opacity="1" fill-rule="nonzero"/><path fill="#231f20" d="M 252.375 338.722656 L 122.625 338.722656 L 143.308594 302.917969 L 231.691406 302.917969 Z M 139.359375 329.066406 L 235.640625 329.066406 L 226.113281 312.574219 L 148.886719 312.574219 Z M 139.359375 329.066406 " fill-opacity="1" fill-rule="nonzero"/><path fill="#f5929f" d="M 108.570312 333.476562 L 265.441406 333.476562 C 265.925781 333.476562 266.402344 333.523438 266.875 333.617188 C 267.351562 333.710938 267.808594 333.851562 268.253906 334.035156 C 268.703125 334.21875 269.125 334.445312 269.527344 334.714844 C 269.929688 334.980469 270.300781 335.285156 270.640625 335.628906 C 270.980469 335.96875 271.285156 336.339844 271.554688 336.742188 C 271.824219 337.140625 272.050781 337.566406 272.234375 338.011719 C 272.417969 338.457031 272.558594 338.917969 272.652344 339.390625 C 272.746094 339.863281 272.792969 340.339844 272.792969 340.824219 L 272.792969 346.292969 C 272.792969 346.777344 272.746094 347.253906 272.652344 347.726562 C 272.558594 348.199219 272.417969 348.660156 272.234375 349.105469 C 272.050781 349.550781 271.824219 349.976562 271.554688 350.375 C 271.285156 350.777344 270.980469 351.148438 270.640625 351.488281 C 270.300781 351.832031 269.929688 352.136719 269.527344 352.402344 C 269.125 352.671875 268.703125 352.898438 268.253906 353.082031 C 267.808594 353.265625 267.351562 353.40625 266.875 353.5 C 266.402344 353.59375 265.925781 353.640625 265.441406 353.640625 L 108.570312 353.640625 C 108.085938 353.640625 107.609375 353.59375 107.132812 353.5 C 106.660156 353.40625 106.203125 353.265625 105.753906 353.082031 C 105.308594 352.898438 104.886719 352.671875 104.484375 352.402344 C 104.082031 352.136719 103.710938 351.832031 103.371094 351.488281 C 103.027344 351.148438 102.722656 350.777344 102.457031 350.375 C 102.1875 349.976562 101.960938 349.550781 101.777344 349.105469 C 101.589844 348.660156 101.453125 348.199219 101.359375 347.726562 C 101.261719 347.253906 101.214844 346.777344 101.214844 346.292969 L 101.214844 340.824219 C 101.214844 340.339844 101.261719 339.863281 101.359375 339.390625 C 101.453125 338.917969 101.589844 338.457031 101.777344 338.011719 C 101.960938 337.566406 102.1875 337.140625 102.457031 336.742188 C 102.722656 336.339844 103.027344 335.96875 103.371094 335.628906 C 103.710938 335.285156 104.082031 334.980469 104.484375 334.714844 C 104.886719 334.445312 105.308594 334.21875 105.753906 334.035156 C 106.203125 333.851562 106.660156 333.710938 107.132812 333.617188 C 107.609375 333.523438 108.085938 333.476562 108.570312 333.476562 Z M 108.570312 333.476562 " fill-opacity="1" fill-rule="nonzero"/><g clip-path="url(#3d63204741)"><path fill="#231f20" d="M 265.441406 358.46875 L 108.566406 358.46875 C 107.769531 358.46875 106.976562 358.390625 106.191406 358.234375 C 105.410156 358.078125 104.648438 357.84375 103.910156 357.539062 C 103.167969 357.230469 102.46875 356.855469 101.804688 356.414062 C 101.136719 355.96875 100.523438 355.464844 99.957031 354.898438 C 99.390625 354.332031 98.886719 353.71875 98.441406 353.054688 C 98 352.390625 97.621094 351.6875 97.316406 350.949219 C 97.011719 350.210938 96.777344 349.453125 96.621094 348.667969 C 96.464844 347.882812 96.386719 347.09375 96.386719 346.292969 L 96.386719 340.824219 C 96.386719 340.027344 96.464844 339.234375 96.621094 338.449219 C 96.777344 337.667969 97.011719 336.90625 97.316406 336.167969 C 97.621094 335.429688 98 334.730469 98.441406 334.0625 C 98.886719 333.398438 99.390625 332.785156 99.957031 332.21875 C 100.523438 331.65625 101.136719 331.152344 101.804688 330.707031 C 102.46875 330.261719 103.167969 329.886719 103.910156 329.582031 C 104.648438 329.273438 105.410156 329.042969 106.191406 328.886719 C 106.976562 328.730469 107.769531 328.648438 108.566406 328.648438 L 265.441406 328.648438 C 266.242188 328.648438 267.03125 328.730469 267.816406 328.886719 C 268.601562 329.042969 269.363281 329.273438 270.101562 329.582031 C 270.839844 329.886719 271.542969 330.261719 272.207031 330.707031 C 272.871094 331.148438 273.488281 331.65625 274.050781 332.21875 C 274.617188 332.785156 275.121094 333.398438 275.566406 334.0625 C 276.011719 334.726562 276.386719 335.429688 276.695312 336.167969 C 277 336.90625 277.230469 337.667969 277.386719 338.449219 C 277.546875 339.234375 277.625 340.027344 277.625 340.824219 L 277.625 346.296875 C 277.625 347.09375 277.546875 347.886719 277.386719 348.671875 C 277.230469 349.453125 277 350.214844 276.691406 350.953125 C 276.386719 351.691406 276.011719 352.390625 275.566406 353.054688 C 275.121094 353.71875 274.617188 354.335938 274.050781 354.898438 C 273.484375 355.464844 272.871094 355.96875 272.207031 356.414062 C 271.542969 356.859375 270.839844 357.234375 270.101562 357.539062 C 269.363281 357.84375 268.601562 358.078125 267.816406 358.234375 C 267.03125 358.390625 266.242188 358.46875 265.441406 358.46875 Z M 108.566406 338.304688 C 108.234375 338.304688 107.914062 338.367188 107.605469 338.496094 C 107.296875 338.625 107.023438 338.804688 106.785156 339.042969 C 106.550781 339.277344 106.367188 339.550781 106.242188 339.859375 C 106.113281 340.167969 106.046875 340.488281 106.046875 340.824219 L 106.046875 346.292969 C 106.046875 346.628906 106.113281 346.949219 106.242188 347.257812 C 106.367188 347.566406 106.550781 347.839844 106.785156 348.074219 C 107.023438 348.3125 107.296875 348.492188 107.605469 348.621094 C 107.914062 348.75 108.234375 348.8125 108.566406 348.8125 L 265.441406 348.8125 C 265.777344 348.8125 266.097656 348.75 266.40625 348.621094 C 266.714844 348.492188 266.988281 348.3125 267.222656 348.074219 C 267.460938 347.839844 267.640625 347.566406 267.769531 347.257812 C 267.898438 346.949219 267.960938 346.628906 267.960938 346.292969 L 267.960938 340.824219 C 267.960938 340.492188 267.898438 340.167969 267.769531 339.859375 C 267.640625 339.550781 267.460938 339.28125 267.222656 339.042969 C 266.988281 338.808594 266.714844 338.625 266.40625 338.5 C 266.097656 338.371094 265.777344 338.304688 265.441406 338.304688 Z M 108.566406 338.304688 " fill-opacity="1" fill-rule="nonzero"/></g></svg>