<svg xmlns="http://www.w3.org/2000/svg" xmlns:xlink="http://www.w3.org/1999/xlink" width="500" zoomAndPan="magnify" viewBox="0 0 375 374.999991" height="500" preserveAspectRatio="xMidYMid meet" version="1.0"><defs><g/><clipPath id="223dc96d05"><path d="M 68.382812 37.5 L 306.882812 37.5 L 306.882812 227 L 68.382812 227 Z M 68.382812 37.5 " clip-rule="nonzero"/></clipPath><clipPath id="f0ba67d4a1"><path d="M 129 236 L 245 236 L 245 255.75 L 129 255.75 Z M 129 236 " clip-rule="nonzero"/></clipPath></defs><path fill="#f5929f" d="M 89.402344 40.609375 L 285.863281 40.609375 C 286.453125 40.609375 287.039062 40.640625 287.625 40.695312 C 288.207031 40.753906 288.789062 40.839844 289.367188 40.957031 C 289.941406 41.070312 290.511719 41.214844 291.074219 41.382812 C 291.636719 41.554688 292.1875 41.753906 292.730469 41.976562 C 293.273438 42.203125 293.804688 42.453125 294.324219 42.730469 C 294.84375 43.007812 295.347656 43.308594 295.835938 43.636719 C 296.324219 43.964844 296.796875 44.3125 297.25 44.6875 C 297.703125 45.058594 298.136719 45.453125 298.554688 45.871094 C 298.96875 46.285156 299.363281 46.71875 299.738281 47.175781 C 300.109375 47.628906 300.460938 48.101562 300.785156 48.589844 C 301.113281 49.078125 301.414062 49.582031 301.691406 50.101562 C 301.96875 50.621094 302.21875 51.152344 302.445312 51.695312 C 302.667969 52.238281 302.867188 52.789062 303.039062 53.351562 C 303.207031 53.914062 303.351562 54.484375 303.464844 55.0625 C 303.582031 55.640625 303.667969 56.21875 303.722656 56.804688 C 303.78125 57.390625 303.808594 57.976562 303.808594 58.566406 L 303.808594 205.351562 C 303.808594 205.941406 303.78125 206.527344 303.722656 207.113281 C 303.667969 207.699219 303.582031 208.277344 303.464844 208.855469 C 303.351562 209.433594 303.207031 210.003906 303.039062 210.566406 C 302.867188 211.128906 302.667969 211.679688 302.445312 212.222656 C 302.21875 212.765625 301.96875 213.296875 301.691406 213.816406 C 301.414062 214.335938 301.113281 214.839844 300.785156 215.328125 C 300.460938 215.816406 300.109375 216.289062 299.738281 216.742188 C 299.363281 217.199219 298.96875 217.632812 298.554688 218.050781 C 298.136719 218.464844 297.703125 218.859375 297.25 219.230469 C 296.796875 219.605469 296.324219 219.957031 295.835938 220.28125 C 295.347656 220.609375 294.84375 220.910156 294.324219 221.1875 C 293.804688 221.464844 293.273438 221.714844 292.730469 221.941406 C 292.1875 222.167969 291.636719 222.363281 291.074219 222.535156 C 290.511719 222.707031 289.941406 222.847656 289.367188 222.960938 C 288.789062 223.078125 288.207031 223.164062 287.625 223.222656 C 287.039062 223.277344 286.453125 223.308594 285.863281 223.308594 L 89.402344 223.308594 C 88.8125 223.308594 88.226562 223.277344 87.644531 223.222656 C 87.058594 223.164062 86.476562 223.078125 85.902344 222.960938 C 85.324219 222.847656 84.753906 222.707031 84.191406 222.535156 C 83.628906 222.363281 83.078125 222.167969 82.535156 221.941406 C 81.992188 221.714844 81.460938 221.464844 80.941406 221.1875 C 80.421875 220.910156 79.921875 220.609375 79.429688 220.28125 C 78.941406 219.957031 78.472656 219.605469 78.015625 219.230469 C 77.5625 218.859375 77.128906 218.464844 76.710938 218.050781 C 76.296875 217.632812 75.902344 217.199219 75.53125 216.742188 C 75.15625 216.289062 74.808594 215.816406 74.480469 215.328125 C 74.152344 214.839844 73.851562 214.335938 73.574219 213.816406 C 73.296875 213.296875 73.046875 212.765625 72.820312 212.222656 C 72.597656 211.679688 72.398438 211.128906 72.230469 210.566406 C 72.058594 210.003906 71.914062 209.433594 71.800781 208.855469 C 71.6875 208.277344 71.601562 207.699219 71.542969 207.113281 C 71.484375 206.527344 71.457031 205.941406 71.457031 205.351562 L 71.457031 58.566406 C 71.457031 57.976562 71.484375 57.390625 71.542969 56.804688 C 71.601562 56.21875 71.6875 55.640625 71.800781 55.0625 C 71.914062 54.484375 72.058594 53.914062 72.230469 53.351562 C 72.398438 52.789062 72.597656 52.238281 72.820312 51.695312 C 73.046875 51.152344 73.296875 50.621094 73.574219 50.101562 C 73.851562 49.582031 74.152344 49.078125 74.480469 48.589844 C 74.808594 48.101562 75.15625 47.628906 75.53125 47.175781 C 75.902344 46.71875 76.296875 46.285156 76.710938 45.871094 C 77.128906 45.453125 77.5625 45.058594 78.015625 44.6875 C 78.472656 44.3125 78.941406 43.964844 79.429688 43.636719 C 79.921875 43.308594 80.421875 43.007812 80.941406 42.730469 C 81.460938 42.453125 81.992188 42.203125 82.535156 41.976562 C 83.078125 41.753906 83.628906 41.554688 84.191406 41.382812 C 84.753906 41.214844 85.324219 41.070312 85.902344 40.957031 C 86.476562 40.839844 87.058594 40.753906 87.644531 40.695312 C 88.226562 40.640625 88.8125 40.609375 89.402344 40.609375 Z M 89.402344 40.609375 " fill-opacity="1" fill-rule="nonzero"/><g clip-path="url(#223dc96d05)"><path fill="#231f20" d="M 285.867188 226.382812 L 89.402344 226.382812 C 88.714844 226.382812 88.027344 226.347656 87.34375 226.277344 C 86.65625 226.210938 85.976562 226.109375 85.304688 225.972656 C 84.628906 225.839844 83.960938 225.671875 83.304688 225.472656 C 82.644531 225.269531 81.996094 225.039062 81.363281 224.773438 C 80.726562 224.511719 80.105469 224.214844 79.5 223.890625 C 78.890625 223.566406 78.300781 223.214844 77.730469 222.832031 C 77.15625 222.449219 76.605469 222.039062 76.074219 221.601562 C 75.542969 221.164062 75.03125 220.703125 74.546875 220.214844 C 74.058594 219.730469 73.597656 219.21875 73.160156 218.6875 C 72.726562 218.15625 72.316406 217.601562 71.933594 217.03125 C 71.550781 216.457031 71.195312 215.867188 70.871094 215.261719 C 70.546875 214.652344 70.253906 214.03125 69.988281 213.398438 C 69.726562 212.761719 69.492188 212.113281 69.292969 211.453125 C 69.09375 210.796875 68.925781 210.128906 68.789062 209.453125 C 68.65625 208.777344 68.554688 208.097656 68.488281 207.414062 C 68.417969 206.726562 68.382812 206.042969 68.382812 205.351562 L 68.382812 58.566406 C 68.382812 57.878906 68.417969 57.191406 68.488281 56.503906 C 68.554688 55.820312 68.65625 55.140625 68.789062 54.464844 C 68.925781 53.789062 69.09375 53.121094 69.292969 52.464844 C 69.492188 51.804688 69.726562 51.15625 69.988281 50.523438 C 70.253906 49.886719 70.546875 49.265625 70.871094 48.65625 C 71.195312 48.050781 71.550781 47.460938 71.933594 46.886719 C 72.316406 46.316406 72.726562 45.761719 73.160156 45.230469 C 73.597656 44.699219 74.058594 44.191406 74.546875 43.703125 C 75.03125 43.214844 75.542969 42.753906 76.074219 42.316406 C 76.605469 41.878906 77.15625 41.46875 77.730469 41.085938 C 78.300781 40.703125 78.890625 40.351562 79.5 40.027344 C 80.105469 39.703125 80.726562 39.40625 81.363281 39.144531 C 81.996094 38.878906 82.644531 38.648438 83.304688 38.445312 C 83.960938 38.246094 84.628906 38.078125 85.304688 37.945312 C 85.976562 37.808594 86.65625 37.707031 87.34375 37.640625 C 88.027344 37.570312 88.714844 37.535156 89.402344 37.535156 L 285.867188 37.535156 C 286.554688 37.535156 287.242188 37.570312 287.925781 37.640625 C 288.609375 37.707031 289.289062 37.808594 289.964844 37.945312 C 290.640625 38.078125 291.304688 38.246094 291.964844 38.445312 C 292.621094 38.648438 293.269531 38.878906 293.90625 39.144531 C 294.542969 39.40625 295.164062 39.703125 295.769531 40.027344 C 296.375 40.351562 296.964844 40.703125 297.539062 41.085938 C 298.109375 41.46875 298.660156 41.878906 299.195312 42.316406 C 299.726562 42.753906 300.234375 43.214844 300.722656 43.703125 C 301.207031 44.191406 301.667969 44.699219 302.105469 45.230469 C 302.542969 45.761719 302.953125 46.316406 303.335938 46.886719 C 303.71875 47.460938 304.070312 48.050781 304.394531 48.65625 C 304.71875 49.265625 305.015625 49.886719 305.277344 50.523438 C 305.542969 51.15625 305.773438 51.804688 305.972656 52.464844 C 306.175781 53.121094 306.339844 53.789062 306.476562 54.464844 C 306.609375 55.140625 306.710938 55.820312 306.78125 56.503906 C 306.847656 57.191406 306.882812 57.878906 306.882812 58.566406 L 306.882812 205.351562 C 306.882812 206.042969 306.847656 206.726562 306.78125 207.414062 C 306.710938 208.097656 306.609375 208.777344 306.476562 209.453125 C 306.339844 210.128906 306.175781 210.796875 305.972656 211.453125 C 305.773438 212.113281 305.542969 212.761719 305.277344 213.398438 C 305.015625 214.03125 304.71875 214.652344 304.394531 215.261719 C 304.070312 215.867188 303.71875 216.457031 303.335938 217.03125 C 302.953125 217.601562 302.542969 218.15625 302.105469 218.6875 C 301.667969 219.21875 301.207031 219.730469 300.722656 220.214844 C 300.234375 220.703125 299.726562 221.164062 299.195312 221.601562 C 298.660156 222.039062 298.109375 222.449219 297.539062 222.832031 C 296.964844 223.214844 296.375 223.566406 295.769531 223.890625 C 295.164062 224.214844 294.542969 224.511719 293.90625 224.773438 C 293.269531 225.039062 292.621094 225.269531 291.964844 225.472656 C 291.304688 225.671875 290.640625 225.839844 289.964844 225.972656 C 289.289062 226.109375 288.609375 226.210938 287.925781 226.277344 C 287.242188 226.347656 286.554688 226.382812 285.867188 226.382812 Z M 89.402344 43.683594 C 88.425781 43.6875 87.457031 43.78125 86.5 43.972656 C 85.542969 44.164062 84.613281 44.449219 83.710938 44.820312 C 82.8125 45.195312 81.953125 45.65625 81.144531 46.199219 C 80.332031 46.742188 79.582031 47.359375 78.890625 48.046875 C 78.199219 48.738281 77.582031 49.492188 77.039062 50.300781 C 76.496094 51.113281 76.039062 51.972656 75.664062 52.875 C 75.292969 53.777344 75.007812 54.707031 74.816406 55.664062 C 74.625 56.621094 74.53125 57.589844 74.527344 58.566406 L 74.527344 205.351562 C 74.53125 206.328125 74.625 207.296875 74.816406 208.253906 C 75.007812 209.210938 75.292969 210.140625 75.664062 211.042969 C 76.039062 211.945312 76.496094 212.804688 77.039062 213.617188 C 77.582031 214.429688 78.199219 215.179688 78.890625 215.871094 C 79.582031 216.5625 80.332031 217.175781 81.144531 217.71875 C 81.953125 218.261719 82.8125 218.722656 83.710938 219.097656 C 84.613281 219.46875 85.542969 219.753906 86.5 219.945312 C 87.457031 220.136719 88.425781 220.230469 89.402344 220.234375 L 285.867188 220.234375 C 286.84375 220.230469 287.808594 220.136719 288.765625 219.945312 C 289.722656 219.753906 290.652344 219.46875 291.554688 219.097656 C 292.457031 218.722656 293.3125 218.261719 294.125 217.71875 C 294.9375 217.175781 295.6875 216.5625 296.378906 215.871094 C 297.066406 215.179688 297.683594 214.429688 298.226562 213.617188 C 298.769531 212.804688 299.226562 211.945312 299.601562 211.042969 C 299.976562 210.140625 300.257812 209.210938 300.449219 208.253906 C 300.640625 207.296875 300.738281 206.328125 300.738281 205.351562 L 300.738281 58.566406 C 300.738281 57.589844 300.640625 56.621094 300.449219 55.664062 C 300.257812 54.707031 299.976562 53.777344 299.601562 52.875 C 299.226562 51.972656 298.769531 51.113281 298.226562 50.300781 C 297.683594 49.492188 297.066406 48.738281 296.378906 48.046875 C 295.6875 47.359375 294.9375 46.742188 294.125 46.199219 C 293.3125 45.65625 292.457031 45.195312 291.554688 44.820312 C 290.652344 44.449219 289.722656 44.164062 288.765625 43.972656 C 287.808594 43.78125 286.84375 43.6875 285.867188 43.683594 Z M 89.402344 43.683594 " fill-opacity="1" fill-rule="nonzero"/></g><path fill="#c4e5f2" d="M 89.71875 52.441406 L 284.921875 52.441406 C 285.292969 52.441406 285.660156 52.476562 286.027344 52.550781 C 286.390625 52.625 286.746094 52.730469 287.089844 52.875 C 287.433594 53.015625 287.757812 53.191406 288.070312 53.398438 C 288.378906 53.605469 288.664062 53.839844 288.925781 54.101562 C 289.191406 54.367188 289.425781 54.652344 289.632812 54.960938 C 289.839844 55.269531 290.011719 55.597656 290.15625 55.941406 C 290.296875 56.285156 290.40625 56.640625 290.476562 57.003906 C 290.550781 57.371094 290.585938 57.738281 290.585938 58.113281 L 290.585938 205.53125 C 290.585938 205.902344 290.550781 206.269531 290.476562 206.636719 C 290.40625 207 290.296875 207.355469 290.15625 207.699219 C 290.011719 208.042969 289.839844 208.371094 289.632812 208.679688 C 289.425781 208.988281 289.191406 209.277344 288.925781 209.539062 C 288.664062 209.800781 288.378906 210.035156 288.070312 210.242188 C 287.757812 210.449219 287.433594 210.625 287.089844 210.769531 C 286.746094 210.910156 286.390625 211.019531 286.027344 211.089844 C 285.660156 211.164062 285.292969 211.199219 284.921875 211.199219 L 89.71875 211.199219 C 89.34375 211.199219 88.976562 211.164062 88.609375 211.089844 C 88.246094 211.019531 87.890625 210.910156 87.546875 210.769531 C 87.203125 210.625 86.878906 210.449219 86.566406 210.242188 C 86.257812 210.035156 85.972656 209.800781 85.710938 209.539062 C 85.445312 209.277344 85.210938 208.988281 85.003906 208.679688 C 84.796875 208.371094 84.625 208.042969 84.480469 207.699219 C 84.339844 207.355469 84.230469 207 84.160156 206.636719 C 84.085938 206.269531 84.050781 205.902344 84.050781 205.53125 L 84.050781 58.113281 C 84.050781 57.738281 84.085938 57.371094 84.160156 57.003906 C 84.230469 56.640625 84.339844 56.285156 84.480469 55.941406 C 84.625 55.597656 84.796875 55.269531 85.003906 54.960938 C 85.210938 54.652344 85.445312 54.367188 85.710938 54.101562 C 85.972656 53.839844 86.257812 53.605469 86.566406 53.398438 C 86.878906 53.191406 87.203125 53.015625 87.546875 52.875 C 87.890625 52.730469 88.246094 52.625 88.609375 52.550781 C 88.976562 52.476562 89.34375 52.441406 89.71875 52.441406 Z M 89.71875 52.441406 " fill-opacity="1" fill-rule="nonzero"/><path fill="#91d2e7" d="M 87.121094 52.441406 L 123.089844 52.441406 L 123.089844 210.707031 L 87.121094 210.707031 Z M 87.121094 52.441406 " fill-opacity="1" fill-rule="nonzero"/><path fill="#231f20" d="M 284.921875 214.273438 L 89.714844 214.273438 C 89.144531 214.273438 88.574219 214.214844 88.011719 214.101562 C 87.449219 213.992188 86.902344 213.824219 86.375 213.605469 C 85.84375 213.386719 85.339844 213.117188 84.863281 212.796875 C 84.386719 212.476562 83.945312 212.113281 83.539062 211.707031 C 83.132812 211.304688 82.769531 210.863281 82.453125 210.382812 C 82.132812 209.90625 81.863281 209.402344 81.644531 208.875 C 81.425781 208.34375 81.257812 207.796875 81.144531 207.234375 C 81.035156 206.671875 80.976562 206.101562 80.976562 205.527344 L 80.976562 58.113281 C 80.976562 57.539062 81.035156 56.96875 81.144531 56.40625 C 81.257812 55.84375 81.425781 55.296875 81.644531 54.765625 C 81.863281 54.238281 82.132812 53.734375 82.453125 53.257812 C 82.769531 52.777344 83.132812 52.335938 83.539062 51.929688 C 83.945312 51.527344 84.386719 51.164062 84.863281 50.84375 C 85.339844 50.523438 85.84375 50.253906 86.375 50.035156 C 86.902344 49.816406 87.449219 49.648438 88.011719 49.535156 C 88.574219 49.425781 89.144531 49.367188 89.714844 49.367188 L 284.921875 49.367188 C 285.496094 49.367188 286.0625 49.425781 286.625 49.535156 C 287.1875 49.648438 287.734375 49.816406 288.265625 50.035156 C 288.792969 50.253906 289.296875 50.523438 289.773438 50.84375 C 290.25 51.164062 290.691406 51.527344 291.097656 51.929688 C 291.503906 52.335938 291.867188 52.777344 292.183594 53.257812 C 292.503906 53.734375 292.773438 54.238281 292.992188 54.765625 C 293.210938 55.296875 293.378906 55.84375 293.492188 56.40625 C 293.601562 56.96875 293.660156 57.539062 293.660156 58.113281 L 293.660156 205.527344 C 293.660156 206.101562 293.601562 206.671875 293.492188 207.234375 C 293.378906 207.796875 293.210938 208.34375 292.992188 208.875 C 292.773438 209.402344 292.503906 209.90625 292.183594 210.386719 C 291.867188 210.863281 291.503906 211.304688 291.097656 211.710938 C 290.691406 212.113281 290.25 212.476562 289.773438 212.796875 C 289.296875 213.117188 288.792969 213.386719 288.261719 213.605469 C 287.734375 213.824219 287.1875 213.992188 286.625 214.101562 C 286.0625 214.214844 285.492188 214.273438 284.921875 214.273438 Z M 89.714844 55.515625 C 89.371094 55.515625 89.042969 55.582031 88.722656 55.714844 C 88.40625 55.847656 88.125 56.035156 87.882812 56.277344 C 87.640625 56.519531 87.453125 56.800781 87.320312 57.117188 C 87.1875 57.4375 87.121094 57.769531 87.121094 58.113281 L 87.121094 205.527344 C 87.121094 205.875 87.1875 206.203125 87.320312 206.523438 C 87.453125 206.839844 87.640625 207.121094 87.882812 207.363281 C 88.125 207.605469 88.40625 207.792969 88.722656 207.925781 C 89.042969 208.058594 89.371094 208.125 89.714844 208.125 L 284.921875 208.125 C 285.265625 208.125 285.59375 208.058594 285.914062 207.925781 C 286.230469 207.792969 286.511719 207.605469 286.753906 207.363281 C 286.996094 207.121094 287.183594 206.839844 287.316406 206.519531 C 287.449219 206.203125 287.515625 205.871094 287.515625 205.527344 L 287.515625 58.113281 C 287.515625 57.769531 287.449219 57.4375 287.316406 57.117188 C 287.183594 56.800781 286.996094 56.519531 286.753906 56.277344 C 286.511719 56.035156 286.230469 55.847656 285.914062 55.714844 C 285.59375 55.582031 285.265625 55.515625 284.921875 55.515625 Z M 89.714844 55.515625 " fill-opacity="1" fill-rule="nonzero"/><path fill="#231f20" d="M 122.441406 128.734375 C 122.035156 128.734375 121.640625 128.65625 121.265625 128.5 C 120.890625 128.34375 120.558594 128.121094 120.269531 127.832031 C 119.980469 127.546875 119.757812 127.210938 119.601562 126.835938 C 119.445312 126.460938 119.367188 126.066406 119.367188 125.660156 L 119.367188 52.441406 C 119.367188 52.035156 119.445312 51.640625 119.601562 51.265625 C 119.757812 50.886719 119.980469 50.554688 120.269531 50.269531 C 120.558594 49.980469 120.890625 49.757812 121.265625 49.601562 C 121.640625 49.445312 122.035156 49.367188 122.441406 49.367188 C 122.847656 49.367188 123.242188 49.445312 123.617188 49.601562 C 123.992188 49.757812 124.324219 49.980469 124.613281 50.269531 C 124.902344 50.554688 125.125 50.886719 125.28125 51.265625 C 125.4375 51.640625 125.515625 52.035156 125.515625 52.441406 L 125.515625 125.660156 C 125.515625 126.066406 125.4375 126.460938 125.28125 126.835938 C 125.125 127.210938 124.902344 127.546875 124.613281 127.832031 C 124.324219 128.121094 123.992188 128.34375 123.617188 128.5 C 123.242188 128.65625 122.847656 128.734375 122.441406 128.734375 Z M 122.441406 128.734375 " fill-opacity="1" fill-rule="nonzero"/><path fill="#231f20" d="M 122.441406 213.890625 C 122.035156 213.890625 121.640625 213.8125 121.265625 213.65625 C 120.890625 213.5 120.558594 213.277344 120.269531 212.988281 C 119.980469 212.699219 119.757812 212.367188 119.601562 211.992188 C 119.445312 211.613281 119.367188 211.222656 119.367188 210.8125 L 119.367188 149.597656 C 119.367188 149.1875 119.445312 148.796875 119.601562 148.417969 C 119.757812 148.042969 119.980469 147.710938 120.269531 147.421875 C 120.558594 147.132812 120.890625 146.910156 121.265625 146.757812 C 121.640625 146.601562 122.035156 146.523438 122.441406 146.523438 C 122.847656 146.523438 123.242188 146.601562 123.617188 146.757812 C 123.992188 146.910156 124.324219 147.132812 124.613281 147.421875 C 124.902344 147.710938 125.125 148.042969 125.28125 148.417969 C 125.4375 148.796875 125.515625 149.1875 125.515625 149.597656 L 125.515625 210.8125 C 125.515625 211.222656 125.4375 211.613281 125.28125 211.992188 C 125.125 212.367188 124.902344 212.699219 124.613281 212.988281 C 124.324219 213.277344 123.992188 213.5 123.617188 213.65625 C 123.242188 213.8125 122.847656 213.890625 122.441406 213.890625 Z M 122.441406 213.890625 " fill-opacity="1" fill-rule="nonzero"/><path fill="#231f20" d="M 104.199219 171.640625 C 103.792969 171.640625 103.398438 171.566406 103.023438 171.410156 C 102.648438 171.253906 102.316406 171.03125 102.027344 170.742188 C 101.738281 170.453125 101.515625 170.121094 101.359375 169.746094 C 101.203125 169.367188 101.125 168.976562 101.125 168.566406 L 101.125 95.351562 C 101.125 94.941406 101.203125 94.550781 101.359375 94.175781 C 101.515625 93.796875 101.738281 93.464844 102.027344 93.175781 C 102.316406 92.886719 102.648438 92.667969 103.023438 92.511719 C 103.398438 92.355469 103.792969 92.277344 104.199219 92.277344 C 104.605469 92.277344 105 92.355469 105.375 92.511719 C 105.753906 92.667969 106.085938 92.886719 106.371094 93.175781 C 106.660156 93.464844 106.882812 93.796875 107.039062 94.175781 C 107.195312 94.550781 107.273438 94.941406 107.273438 95.351562 L 107.273438 168.566406 C 107.273438 168.976562 107.195312 169.367188 107.039062 169.746094 C 106.882812 170.121094 106.660156 170.453125 106.371094 170.742188 C 106.085938 171.03125 105.753906 171.253906 105.375 171.410156 C 105 171.566406 104.605469 171.640625 104.199219 171.640625 Z M 104.199219 171.640625 " fill-opacity="1" fill-rule="nonzero"/><path fill="#f8f5bb" d="M 238.820312 133.089844 C 238.820312 134.777344 238.738281 136.460938 238.574219 138.140625 C 238.410156 139.820312 238.160156 141.484375 237.832031 143.140625 C 237.503906 144.796875 237.09375 146.429688 236.605469 148.046875 C 236.113281 149.660156 235.546875 151.25 234.902344 152.808594 C 234.257812 154.367188 233.535156 155.890625 232.742188 157.378906 C 231.945312 158.867188 231.078125 160.3125 230.140625 161.714844 C 229.203125 163.121094 228.203125 164.472656 227.132812 165.777344 C 226.0625 167.082031 224.929688 168.332031 223.738281 169.523438 C 222.542969 170.71875 221.296875 171.851562 219.992188 172.921875 C 218.6875 173.992188 217.335938 174.996094 215.933594 175.933594 C 214.53125 176.871094 213.085938 177.738281 211.597656 178.53125 C 210.109375 179.328125 208.585938 180.050781 207.027344 180.695312 C 205.46875 181.339844 203.882812 181.910156 202.269531 182.398438 C 200.65625 182.886719 199.019531 183.296875 197.367188 183.628906 C 195.710938 183.957031 194.046875 184.203125 192.367188 184.367188 C 190.6875 184.535156 189.003906 184.617188 187.316406 184.617188 C 185.632812 184.617188 183.949219 184.535156 182.269531 184.367188 C 180.589844 184.203125 178.925781 183.957031 177.269531 183.628906 C 175.617188 183.296875 173.980469 182.886719 172.367188 182.398438 C 170.753906 181.910156 169.167969 181.339844 167.609375 180.695312 C 166.050781 180.050781 164.527344 179.328125 163.039062 178.53125 C 161.550781 177.738281 160.105469 176.871094 158.703125 175.933594 C 157.300781 174.996094 155.949219 173.992188 154.644531 172.921875 C 153.339844 171.851562 152.09375 170.71875 150.898438 169.523438 C 149.707031 168.332031 148.574219 167.082031 147.503906 165.777344 C 146.433594 164.472656 145.429688 163.121094 144.496094 161.714844 C 143.558594 160.3125 142.691406 158.867188 141.894531 157.378906 C 141.101562 155.890625 140.378906 154.367188 139.734375 152.808594 C 139.089844 151.25 138.523438 149.660156 138.03125 148.046875 C 137.542969 146.429688 137.132812 144.796875 136.804688 143.140625 C 136.476562 141.484375 136.226562 139.820312 136.0625 138.140625 C 135.898438 136.460938 135.816406 134.777344 135.816406 133.089844 C 135.816406 131.402344 135.898438 129.71875 136.0625 128.039062 C 136.226562 126.359375 136.476562 124.691406 136.804688 123.035156 C 137.132812 121.378906 137.542969 119.746094 138.03125 118.128906 C 138.523438 116.515625 139.089844 114.929688 139.734375 113.371094 C 140.378906 111.808594 141.101562 110.285156 141.894531 108.796875 C 142.691406 107.308594 143.558594 105.863281 144.496094 104.460938 C 145.429688 103.058594 146.433594 101.703125 147.503906 100.398438 C 148.574219 99.09375 149.707031 97.847656 150.898438 96.652344 C 152.09375 95.460938 153.339844 94.328125 154.644531 93.257812 C 155.949219 92.1875 157.300781 91.183594 158.703125 90.246094 C 160.105469 89.304688 161.550781 88.441406 163.039062 87.644531 C 164.527344 86.847656 166.050781 86.128906 167.609375 85.484375 C 169.167969 84.835938 170.753906 84.269531 172.367188 83.777344 C 173.980469 83.289062 175.617188 82.878906 177.269531 82.550781 C 178.925781 82.222656 180.589844 81.972656 182.269531 81.808594 C 183.949219 81.644531 185.632812 81.558594 187.316406 81.558594 C 189.003906 81.558594 190.6875 81.644531 192.367188 81.808594 C 194.046875 81.972656 195.710938 82.222656 197.367188 82.550781 C 199.019531 82.878906 200.65625 83.289062 202.269531 83.777344 C 203.882812 84.269531 205.46875 84.835938 207.027344 85.484375 C 208.585938 86.128906 210.109375 86.847656 211.597656 87.644531 C 213.085938 88.441406 214.53125 89.308594 215.933594 90.246094 C 217.335938 91.183594 218.6875 92.1875 219.992188 93.257812 C 221.296875 94.328125 222.542969 95.460938 223.738281 96.652344 C 224.929688 97.847656 226.0625 99.09375 227.132812 100.398438 C 228.203125 101.703125 229.203125 103.058594 230.140625 104.460938 C 231.078125 105.863281 231.945312 107.308594 232.742188 108.796875 C 233.535156 110.285156 234.257812 111.808594 234.902344 113.371094 C 235.546875 114.929688 236.113281 116.515625 236.605469 118.128906 C 237.09375 119.746094 237.503906 121.378906 237.832031 123.035156 C 238.160156 124.691406 238.410156 126.359375 238.574219 128.039062 C 238.738281 129.71875 238.820312 131.402344 238.820312 133.089844 Z M 238.820312 133.089844 " fill-opacity="1" fill-rule="nonzero"/><path fill="#c4e5f2" d="M 151.484375 127.234375 C 155.398438 101.488281 179.617188 83.394531 207.390625 84.113281 C 206.519531 83.742188 205.640625 83.398438 204.75 83.078125 C 203.859375 82.757812 202.960938 82.464844 202.058594 82.195312 C 201.152344 81.921875 200.238281 81.675781 199.320312 81.457031 C 198.398438 81.238281 197.476562 81.042969 196.546875 80.871094 C 195.617188 80.703125 194.679688 80.558594 193.742188 80.441406 C 192.804688 80.324219 191.867188 80.230469 190.921875 80.164062 C 189.980469 80.097656 189.035156 80.058594 188.089844 80.042969 C 187.144531 80.03125 186.199219 80.042969 185.253906 80.082031 C 184.3125 80.117188 183.367188 80.183594 182.425781 80.273438 C 181.488281 80.363281 180.546875 80.476562 179.613281 80.617188 C 178.679688 80.761719 177.75 80.925781 176.824219 81.121094 C 175.898438 81.3125 174.980469 81.53125 174.066406 81.773438 C 173.152344 82.015625 172.246094 82.285156 171.347656 82.578125 C 170.449219 82.871094 169.558594 83.191406 168.675781 83.53125 C 167.796875 83.875 166.925781 84.242188 166.0625 84.628906 C 165.203125 85.019531 164.351562 85.433594 163.515625 85.871094 C 162.675781 86.308594 161.851562 86.769531 161.039062 87.25 C 160.226562 87.734375 159.425781 88.238281 158.640625 88.765625 C 157.855469 89.292969 157.085938 89.839844 156.332031 90.40625 C 155.574219 90.976562 154.835938 91.566406 154.113281 92.175781 C 153.390625 92.785156 152.6875 93.414062 151.996094 94.0625 C 151.308594 94.710938 150.640625 95.378906 149.988281 96.0625 C 149.335938 96.75 148.707031 97.453125 148.09375 98.171875 C 147.480469 98.890625 146.886719 99.628906 146.316406 100.382812 C 145.742188 101.132812 145.191406 101.902344 144.664062 102.6875 C 144.132812 103.46875 143.625 104.265625 143.136719 105.078125 C 142.652344 105.886719 142.1875 106.710938 141.75 107.550781 C 141.308594 108.386719 140.890625 109.234375 140.496094 110.09375 C 140.101562 110.953125 139.734375 111.824219 139.386719 112.703125 C 139.039062 113.582031 138.71875 114.472656 138.421875 115.371094 C 138.125 116.265625 137.851562 117.171875 137.605469 118.085938 C 137.355469 119 137.136719 119.917969 136.9375 120.84375 C 136.742188 121.765625 136.570312 122.695312 136.425781 123.632812 C 136.277344 124.566406 136.160156 125.503906 136.066406 126.445312 C 135.972656 127.386719 135.902344 128.328125 135.859375 129.273438 C 135.816406 130.21875 135.800781 131.164062 135.8125 132.109375 C 135.820312 133.054688 135.859375 134 135.917969 134.941406 C 135.980469 135.886719 136.070312 136.828125 136.183594 137.765625 C 136.296875 138.707031 136.433594 139.640625 136.601562 140.570312 C 136.765625 141.503906 136.957031 142.429688 137.171875 143.351562 C 137.386719 144.269531 137.628906 145.183594 137.894531 146.09375 C 138.160156 147 138.453125 147.898438 138.769531 148.789062 C 139.085938 149.679688 139.425781 150.5625 139.789062 151.4375 C 140.152344 152.308594 140.542969 153.171875 140.953125 154.023438 C 141.363281 154.875 141.800781 155.710938 142.257812 156.539062 C 142.714844 157.367188 143.195312 158.179688 143.699219 158.984375 C 144.203125 159.785156 144.726562 160.570312 145.273438 161.339844 C 145.816406 162.113281 146.386719 162.871094 146.972656 163.609375 C 147.558594 164.351562 148.167969 165.074219 148.796875 165.78125 C 149.421875 166.488281 150.070312 167.179688 150.734375 167.851562 C 151.402344 168.523438 152.082031 169.175781 152.785156 169.808594 C 153.488281 170.445312 154.203125 171.058594 154.941406 171.652344 C 155.675781 172.246094 156.425781 172.820312 157.191406 173.375 C 157.960938 173.925781 158.742188 174.457031 159.535156 174.96875 C 160.332031 175.480469 161.140625 175.964844 161.964844 176.433594 C 162.789062 176.898438 163.625 177.339844 164.46875 177.757812 C 165.316406 178.179688 166.175781 178.574219 167.042969 178.949219 C 167.914062 179.320312 168.792969 179.667969 169.679688 179.992188 C 170.570312 180.316406 171.464844 180.613281 172.371094 180.890625 C 173.273438 181.164062 174.183594 181.414062 175.105469 181.636719 C 176.023438 181.859375 176.945312 182.058594 177.875 182.234375 C 178.804688 182.40625 179.738281 182.554688 180.675781 182.675781 C 181.613281 182.796875 182.550781 182.894531 183.496094 182.964844 C 184.4375 183.035156 185.382812 183.078125 186.328125 183.097656 C 162.839844 173.863281 147.863281 151.09375 151.484375 127.234375 Z M 151.484375 127.234375 " fill-opacity="1" fill-rule="nonzero"/><path fill="#231f20" d="M 187.316406 187.691406 C 157.222656 187.691406 132.742188 163.195312 132.742188 133.089844 C 132.742188 102.980469 157.222656 78.484375 187.316406 78.484375 C 217.410156 78.484375 241.894531 102.980469 241.894531 133.089844 C 241.894531 163.195312 217.410156 187.691406 187.316406 187.691406 Z M 187.316406 84.632812 C 185.730469 84.632812 184.148438 84.710938 182.570312 84.867188 C 180.992188 85.023438 179.425781 85.253906 177.871094 85.566406 C 176.3125 85.875 174.777344 86.261719 173.257812 86.71875 C 171.742188 87.179688 170.25 87.714844 168.785156 88.324219 C 167.320312 88.929688 165.886719 89.609375 164.488281 90.355469 C 163.089844 91.105469 161.730469 91.917969 160.410156 92.800781 C 159.09375 93.683594 157.820312 94.625 156.59375 95.632812 C 155.367188 96.640625 154.195312 97.703125 153.070312 98.824219 C 151.949219 99.949219 150.886719 101.121094 149.878906 102.347656 C 148.875 103.574219 147.929688 104.847656 147.050781 106.167969 C 146.167969 107.488281 145.351562 108.847656 144.605469 110.246094 C 143.859375 111.648438 143.179688 113.078125 142.574219 114.546875 C 141.964844 116.011719 141.433594 117.503906 140.972656 119.023438 C 140.511719 120.542969 140.125 122.078125 139.816406 123.636719 C 139.507812 125.191406 139.273438 126.761719 139.121094 128.339844 C 138.964844 129.917969 138.886719 131.5 138.886719 133.089844 C 138.886719 134.675781 138.964844 136.257812 139.121094 137.839844 C 139.273438 139.417969 139.507812 140.984375 139.816406 142.542969 C 140.125 144.097656 140.511719 145.636719 140.972656 147.152344 C 141.433594 148.671875 141.964844 150.164062 142.574219 151.632812 C 143.179688 153.097656 143.859375 154.53125 144.605469 155.929688 C 145.351562 157.328125 146.167969 158.6875 147.046875 160.007812 C 147.929688 161.328125 148.875 162.601562 149.878906 163.828125 C 150.886719 165.054688 151.949219 166.230469 153.070312 167.351562 C 154.195312 168.472656 155.367188 169.539062 156.59375 170.542969 C 157.820312 171.550781 159.09375 172.496094 160.410156 173.378906 C 161.730469 174.257812 163.089844 175.074219 164.488281 175.820312 C 165.886719 176.570312 167.320312 177.246094 168.785156 177.855469 C 170.25 178.460938 171.742188 178.996094 173.257812 179.457031 C 174.777344 179.917969 176.3125 180.300781 177.871094 180.613281 C 179.425781 180.921875 180.992188 181.152344 182.570312 181.308594 C 184.148438 181.464844 185.730469 181.542969 187.316406 181.542969 C 188.902344 181.542969 190.488281 181.464844 192.066406 181.308594 C 193.644531 181.152344 195.210938 180.921875 196.765625 180.613281 C 198.320312 180.300781 199.859375 179.917969 201.375 179.457031 C 202.894531 178.996094 204.386719 178.460938 205.851562 177.855469 C 207.316406 177.246094 208.75 176.570312 210.148438 175.820312 C 211.546875 175.074219 212.90625 174.257812 214.226562 173.378906 C 215.542969 172.496094 216.816406 171.550781 218.042969 170.542969 C 219.269531 169.539062 220.441406 168.472656 221.5625 167.351562 C 222.683594 166.230469 223.75 165.054688 224.753906 163.828125 C 225.761719 162.601562 226.707031 161.328125 227.585938 160.007812 C 228.46875 158.6875 229.28125 157.328125 230.03125 155.929688 C 230.777344 154.53125 231.457031 153.097656 232.0625 151.632812 C 232.667969 150.164062 233.203125 148.671875 233.664062 147.152344 C 234.125 145.636719 234.507812 144.097656 234.820312 142.542969 C 235.128906 140.984375 235.359375 139.417969 235.515625 137.839844 C 235.671875 136.257812 235.75 134.675781 235.75 133.089844 C 235.746094 131.503906 235.667969 129.917969 235.511719 128.339844 C 235.355469 126.761719 235.121094 125.195312 234.808594 123.640625 C 234.5 122.082031 234.113281 120.546875 233.652344 119.027344 C 233.191406 117.511719 232.65625 116.019531 232.046875 114.554688 C 231.441406 113.089844 230.761719 111.65625 230.015625 110.257812 C 229.265625 108.859375 228.453125 107.5 227.570312 106.183594 C 226.6875 104.863281 225.746094 103.589844 224.738281 102.363281 C 223.734375 101.136719 222.667969 99.964844 221.546875 98.84375 C 220.425781 97.71875 219.253906 96.65625 218.027344 95.648438 C 216.800781 94.644531 215.53125 93.699219 214.210938 92.816406 C 212.894531 91.933594 211.535156 91.121094 210.136719 90.371094 C 208.738281 89.625 207.308594 88.945312 205.84375 88.335938 C 204.378906 87.730469 202.886719 87.195312 201.371094 86.734375 C 199.855469 86.269531 198.316406 85.886719 196.761719 85.574219 C 195.207031 85.261719 193.640625 85.03125 192.0625 84.871094 C 190.484375 84.714844 188.902344 84.636719 187.316406 84.632812 Z M 187.316406 84.632812 " fill-opacity="1" fill-rule="nonzero"/><path fill="#f5929f" d="M 249.65625 91.640625 L 271.066406 91.640625 L 271.066406 103.609375 L 249.65625 103.609375 Z M 249.65625 91.640625 " fill-opacity="1" fill-rule="nonzero"/><path fill="#231f20" d="M 275.472656 100.703125 L 251.082031 100.703125 L 251.082031 95.199219 L 275.472656 95.199219 C 275.882812 95.199219 276.273438 95.121094 276.648438 94.964844 C 277.027344 94.808594 277.359375 94.585938 277.648438 94.296875 C 277.933594 94.011719 278.15625 93.679688 278.3125 93.300781 C 278.46875 92.925781 278.546875 92.53125 278.546875 92.125 C 278.546875 91.71875 278.46875 91.324219 278.3125 90.949219 C 278.15625 90.570312 277.933594 90.238281 277.648438 89.949219 C 277.359375 89.664062 277.027344 89.441406 276.648438 89.285156 C 276.273438 89.128906 275.882812 89.050781 275.472656 89.050781 L 248.011719 89.050781 C 247.601562 89.050781 247.210938 89.128906 246.835938 89.285156 C 246.457031 89.441406 246.125 89.664062 245.835938 89.949219 C 245.550781 90.238281 245.328125 90.570312 245.171875 90.949219 C 245.015625 91.324219 244.9375 91.71875 244.9375 92.125 L 244.9375 103.777344 C 244.9375 104.1875 245.015625 104.578125 245.171875 104.957031 C 245.328125 105.332031 245.550781 105.664062 245.835938 105.953125 C 246.125 106.242188 246.457031 106.464844 246.835938 106.621094 C 247.210938 106.777344 247.601562 106.855469 248.011719 106.855469 L 275.472656 106.855469 C 275.882812 106.855469 276.273438 106.777344 276.648438 106.621094 C 277.027344 106.464844 277.359375 106.242188 277.648438 105.953125 C 277.933594 105.664062 278.15625 105.332031 278.3125 104.957031 C 278.46875 104.578125 278.546875 104.1875 278.546875 103.777344 C 278.546875 103.371094 278.46875 102.980469 278.3125 102.601562 C 278.15625 102.226562 277.933594 101.894531 277.648438 101.605469 C 277.359375 101.316406 277.027344 101.09375 276.648438 100.9375 C 276.273438 100.78125 275.882812 100.703125 275.472656 100.703125 Z M 275.472656 100.703125 " fill-opacity="1" fill-rule="nonzero"/><path fill="#f8f5bb" d="M 270.558594 140.777344 C 270.558594 141.359375 270.5 141.933594 270.390625 142.5 C 270.277344 143.066406 270.109375 143.621094 269.886719 144.15625 C 269.664062 144.6875 269.394531 145.199219 269.074219 145.679688 C 268.75 146.160156 268.386719 146.605469 267.976562 147.015625 C 267.566406 147.425781 267.121094 147.789062 266.640625 148.113281 C 266.160156 148.433594 265.652344 148.707031 265.117188 148.925781 C 264.582031 149.148438 264.03125 149.316406 263.460938 149.429688 C 262.894531 149.542969 262.320312 149.597656 261.742188 149.597656 C 261.164062 149.597656 260.589844 149.542969 260.023438 149.429688 C 259.453125 149.316406 258.902344 149.148438 258.367188 148.925781 C 257.835938 148.707031 257.324219 148.433594 256.84375 148.113281 C 256.363281 147.789062 255.917969 147.425781 255.507812 147.015625 C 255.097656 146.605469 254.734375 146.160156 254.414062 145.679688 C 254.089844 145.199219 253.820312 144.6875 253.597656 144.15625 C 253.375 143.621094 253.210938 143.066406 253.097656 142.5 C 252.984375 141.933594 252.925781 141.359375 252.925781 140.777344 C 252.925781 140.199219 252.984375 139.625 253.097656 139.058594 C 253.210938 138.492188 253.375 137.9375 253.597656 137.402344 C 253.820312 136.867188 254.089844 136.359375 254.414062 135.878906 C 254.734375 135.398438 255.097656 134.953125 255.507812 134.542969 C 255.917969 134.132812 256.363281 133.765625 256.84375 133.445312 C 257.324219 133.125 257.835938 132.851562 258.367188 132.628906 C 258.902344 132.410156 259.453125 132.242188 260.023438 132.128906 C 260.589844 132.015625 261.164062 131.960938 261.742188 131.960938 C 262.320312 131.960938 262.894531 132.015625 263.460938 132.128906 C 264.03125 132.242188 264.582031 132.410156 265.117188 132.628906 C 265.652344 132.851562 266.160156 133.125 266.640625 133.445312 C 267.121094 133.765625 267.566406 134.132812 267.976562 134.542969 C 268.386719 134.953125 268.75 135.398438 269.074219 135.878906 C 269.394531 136.359375 269.664062 136.867188 269.886719 137.402344 C 270.109375 137.9375 270.277344 138.492188 270.390625 139.058594 C 270.5 139.625 270.558594 140.199219 270.558594 140.777344 Z M 270.558594 140.777344 " fill-opacity="1" fill-rule="nonzero"/><path fill="#231f20" d="M 261.742188 152.671875 C 260.964844 152.671875 260.191406 152.597656 259.425781 152.445312 C 258.660156 152.292969 257.914062 152.066406 257.195312 151.769531 C 256.472656 151.46875 255.789062 151.101562 255.136719 150.667969 C 254.488281 150.234375 253.890625 149.742188 253.335938 149.1875 C 252.785156 148.636719 252.292969 148.035156 251.859375 147.386719 C 251.425781 146.738281 251.058594 146.050781 250.757812 145.332031 C 250.460938 144.609375 250.234375 143.863281 250.082031 143.097656 C 249.929688 142.332031 249.855469 141.558594 249.855469 140.777344 C 249.855469 139.996094 249.929688 139.222656 250.082031 138.457031 C 250.234375 137.691406 250.460938 136.949219 250.757812 136.226562 C 251.058594 135.503906 251.425781 134.820312 251.859375 134.171875 C 252.292969 133.519531 252.785156 132.921875 253.335938 132.367188 C 253.886719 131.816406 254.488281 131.324219 255.136719 130.890625 C 255.789062 130.457031 256.472656 130.089844 257.195312 129.789062 C 257.914062 129.492188 258.660156 129.265625 259.425781 129.113281 C 260.191406 128.960938 260.960938 128.882812 261.742188 128.882812 C 262.523438 128.882812 263.296875 128.960938 264.0625 129.113281 C 264.828125 129.265625 265.570312 129.492188 266.292969 129.789062 C 267.015625 130.089844 267.699219 130.457031 268.347656 130.890625 C 268.996094 131.324219 269.597656 131.816406 270.148438 132.367188 C 270.703125 132.921875 271.195312 133.519531 271.628906 134.171875 C 272.0625 134.820312 272.429688 135.503906 272.726562 136.226562 C 273.027344 136.949219 273.25 137.691406 273.402344 138.457031 C 273.554688 139.222656 273.632812 140 273.632812 140.777344 C 273.632812 141.558594 273.554688 142.332031 273.402344 143.097656 C 273.25 143.863281 273.023438 144.609375 272.722656 145.328125 C 272.425781 146.050781 272.058594 146.734375 271.625 147.382812 C 271.191406 148.03125 270.699219 148.632812 270.144531 149.183594 C 269.59375 149.738281 268.992188 150.230469 268.34375 150.664062 C 267.695312 151.097656 267.011719 151.464844 266.289062 151.765625 C 265.570312 152.0625 264.828125 152.289062 264.0625 152.441406 C 263.296875 152.59375 262.523438 152.671875 261.742188 152.671875 Z M 261.742188 135.035156 C 261.367188 135.035156 260.992188 135.070312 260.625 135.144531 C 260.253906 135.21875 259.894531 135.328125 259.546875 135.472656 C 259.199219 135.617188 258.867188 135.792969 258.554688 136.003906 C 258.238281 136.210938 257.949219 136.449219 257.683594 136.714844 C 257.414062 136.984375 257.179688 137.273438 256.96875 137.585938 C 256.757812 137.902344 256.582031 138.230469 256.4375 138.582031 C 256.292969 138.929688 256.183594 139.289062 256.109375 139.660156 C 256.039062 140.027344 256 140.402344 256 140.777344 C 256 141.15625 256.039062 141.53125 256.109375 141.898438 C 256.183594 142.269531 256.292969 142.628906 256.4375 142.976562 C 256.582031 143.328125 256.757812 143.65625 256.96875 143.972656 C 257.175781 144.285156 257.414062 144.574219 257.683594 144.84375 C 257.949219 145.109375 258.238281 145.347656 258.550781 145.558594 C 258.867188 145.765625 259.195312 145.941406 259.546875 146.085938 C 259.894531 146.230469 260.253906 146.339844 260.621094 146.414062 C 260.992188 146.488281 261.367188 146.523438 261.742188 146.523438 C 262.121094 146.523438 262.492188 146.488281 262.863281 146.414062 C 263.234375 146.339844 263.59375 146.230469 263.941406 146.085938 C 264.289062 145.945312 264.621094 145.765625 264.933594 145.558594 C 265.246094 145.347656 265.539062 145.109375 265.804688 144.84375 C 266.070312 144.574219 266.308594 144.285156 266.519531 143.972656 C 266.726562 143.65625 266.90625 143.328125 267.050781 142.976562 C 267.191406 142.628906 267.300781 142.269531 267.375 141.902344 C 267.449219 141.53125 267.484375 141.15625 267.484375 140.78125 C 267.484375 140.402344 267.449219 140.027344 267.375 139.660156 C 267.300781 139.289062 267.191406 138.929688 267.046875 138.582031 C 266.902344 138.234375 266.726562 137.902344 266.515625 137.589844 C 266.308594 137.273438 266.070312 136.984375 265.800781 136.71875 C 265.535156 136.453125 265.246094 136.214844 264.933594 136.003906 C 264.621094 135.792969 264.289062 135.617188 263.941406 135.472656 C 263.59375 135.328125 263.234375 135.21875 262.863281 135.144531 C 262.492188 135.070312 262.121094 135.035156 261.742188 135.035156 Z M 261.742188 135.035156 " fill-opacity="1" fill-rule="nonzero"/><path fill="#231f20" d="M 287.515625 198.664062 L 122.441406 198.664062 C 122.035156 198.664062 121.640625 198.585938 121.265625 198.429688 C 120.890625 198.273438 120.558594 198.050781 120.269531 197.761719 C 119.980469 197.472656 119.757812 197.140625 119.601562 196.765625 C 119.445312 196.386719 119.367188 195.996094 119.367188 195.589844 C 119.367188 195.179688 119.445312 194.789062 119.601562 194.410156 C 119.757812 194.035156 119.980469 193.703125 120.269531 193.414062 C 120.558594 193.125 120.890625 192.902344 121.265625 192.746094 C 121.640625 192.59375 122.035156 192.515625 122.441406 192.515625 L 287.515625 192.515625 C 287.921875 192.515625 288.3125 192.59375 288.691406 192.746094 C 289.066406 192.902344 289.398438 193.125 289.6875 193.414062 C 289.976562 193.703125 290.199219 194.035156 290.351562 194.410156 C 290.507812 194.789062 290.585938 195.179688 290.585938 195.589844 C 290.585938 195.996094 290.507812 196.386719 290.351562 196.765625 C 290.199219 197.140625 289.976562 197.472656 289.6875 197.761719 C 289.398438 198.050781 289.066406 198.273438 288.691406 198.429688 C 288.3125 198.585938 287.921875 198.664062 287.515625 198.664062 Z M 287.515625 198.664062 " fill-opacity="1" fill-rule="nonzero"/><path fill="#f5929f" d="M 223.570312 240.066406 L 213.964844 223.417969 L 161.300781 223.417969 L 151.695312 240.066406 Z M 223.570312 240.066406 " fill-opacity="1" fill-rule="nonzero"/><path fill="#231f20" d="M 228.894531 243.140625 L 146.371094 243.140625 L 159.527344 220.34375 L 215.738281 220.34375 Z M 157.015625 236.992188 L 218.25 236.992188 L 212.191406 226.492188 L 163.074219 226.492188 Z M 157.015625 236.992188 " fill-opacity="1" fill-rule="nonzero"/><path fill="#f5929f" d="M 137.433594 239.800781 L 237.203125 239.800781 C 237.511719 239.800781 237.816406 239.828125 238.117188 239.890625 C 238.417969 239.949219 238.710938 240.039062 238.992188 240.15625 C 239.277344 240.273438 239.546875 240.417969 239.800781 240.585938 C 240.058594 240.757812 240.292969 240.953125 240.511719 241.167969 C 240.726562 241.386719 240.921875 241.621094 241.09375 241.878906 C 241.261719 242.132812 241.40625 242.402344 241.523438 242.6875 C 241.640625 242.972656 241.730469 243.261719 241.789062 243.566406 C 241.851562 243.867188 241.878906 244.171875 241.878906 244.476562 L 241.878906 247.960938 C 241.878906 248.269531 241.851562 248.574219 241.789062 248.875 C 241.730469 249.175781 241.640625 249.46875 241.523438 249.75 C 241.40625 250.035156 241.261719 250.304688 241.09375 250.558594 C 240.921875 250.816406 240.726562 251.050781 240.511719 251.269531 C 240.292969 251.488281 240.058594 251.679688 239.800781 251.851562 C 239.546875 252.023438 239.277344 252.164062 238.992188 252.285156 C 238.710938 252.402344 238.417969 252.488281 238.117188 252.550781 C 237.816406 252.609375 237.511719 252.640625 237.203125 252.640625 L 137.433594 252.640625 C 137.125 252.640625 136.820312 252.609375 136.519531 252.550781 C 136.21875 252.488281 135.925781 252.402344 135.644531 252.285156 C 135.359375 252.164062 135.089844 252.023438 134.835938 251.851562 C 134.578125 251.679688 134.34375 251.488281 134.125 251.269531 C 133.910156 251.050781 133.714844 250.816406 133.542969 250.558594 C 133.375 250.304688 133.230469 250.035156 133.113281 249.75 C 132.996094 249.46875 132.90625 249.175781 132.847656 248.875 C 132.785156 248.574219 132.757812 248.269531 132.757812 247.960938 L 132.757812 244.476562 C 132.757812 244.171875 132.785156 243.867188 132.847656 243.566406 C 132.90625 243.261719 132.996094 242.972656 133.113281 242.6875 C 133.230469 242.402344 133.375 242.132812 133.542969 241.878906 C 133.714844 241.621094 133.910156 241.386719 134.125 241.167969 C 134.34375 240.953125 134.578125 240.757812 134.835938 240.585938 C 135.089844 240.417969 135.359375 240.273438 135.644531 240.15625 C 135.925781 240.039062 136.21875 239.949219 136.519531 239.890625 C 136.820312 239.828125 137.125 239.800781 137.433594 239.800781 Z M 137.433594 239.800781 " fill-opacity="1" fill-rule="nonzero"/><g clip-path="url(#f0ba67d4a1)"><path fill="#231f20" d="M 237.203125 255.714844 L 137.433594 255.714844 C 136.921875 255.714844 136.421875 255.664062 135.921875 255.5625 C 135.421875 255.464844 134.9375 255.316406 134.46875 255.121094 C 134 254.925781 133.550781 254.6875 133.128906 254.402344 C 132.707031 254.121094 132.316406 253.800781 131.957031 253.441406 C 131.597656 253.082031 131.277344 252.6875 130.992188 252.265625 C 130.710938 251.84375 130.472656 251.394531 130.277344 250.925781 C 130.082031 250.457031 129.933594 249.972656 129.835938 249.472656 C 129.734375 248.972656 129.683594 248.46875 129.683594 247.960938 L 129.683594 244.480469 C 129.683594 243.96875 129.734375 243.464844 129.835938 242.96875 C 129.933594 242.46875 130.082031 241.984375 130.277344 241.511719 C 130.472656 241.042969 130.710938 240.597656 130.992188 240.175781 C 131.277344 239.75 131.597656 239.359375 131.957031 239 C 132.316406 238.640625 132.707031 238.320312 133.128906 238.035156 C 133.550781 237.753906 134 237.515625 134.46875 237.320312 C 134.9375 237.125 135.421875 236.976562 135.921875 236.875 C 136.421875 236.777344 136.921875 236.726562 137.433594 236.726562 L 237.203125 236.726562 C 237.710938 236.726562 238.214844 236.777344 238.714844 236.875 C 239.214844 236.976562 239.699219 237.125 240.167969 237.320312 C 240.636719 237.515625 241.082031 237.753906 241.507812 238.035156 C 241.929688 238.316406 242.320312 238.640625 242.679688 239 C 243.039062 239.359375 243.359375 239.75 243.644531 240.171875 C 243.925781 240.597656 244.164062 241.042969 244.359375 241.511719 C 244.554688 241.984375 244.703125 242.46875 244.800781 242.96875 C 244.902344 243.464844 244.953125 243.96875 244.953125 244.480469 L 244.953125 247.960938 C 244.953125 248.472656 244.902344 248.976562 244.800781 249.472656 C 244.703125 249.972656 244.554688 250.457031 244.359375 250.925781 C 244.164062 251.398438 243.925781 251.84375 243.644531 252.265625 C 243.359375 252.691406 243.039062 253.082031 242.679688 253.441406 C 242.320312 253.800781 241.929688 254.121094 241.507812 254.40625 C 241.082031 254.6875 240.636719 254.925781 240.167969 255.121094 C 239.699219 255.316406 239.214844 255.464844 238.714844 255.5625 C 238.214844 255.664062 237.710938 255.714844 237.203125 255.714844 Z M 137.433594 242.871094 C 137.21875 242.875 137.015625 242.914062 136.820312 242.996094 C 136.621094 243.078125 136.449219 243.191406 136.300781 243.34375 C 136.148438 243.492188 136.035156 243.667969 135.953125 243.863281 C 135.871094 244.058594 135.828125 244.265625 135.828125 244.476562 L 135.828125 247.960938 C 135.828125 248.171875 135.871094 248.378906 135.953125 248.574219 C 136.035156 248.769531 136.148438 248.945312 136.300781 249.09375 C 136.449219 249.246094 136.621094 249.359375 136.820312 249.441406 C 137.015625 249.523438 137.21875 249.566406 137.433594 249.566406 L 237.203125 249.566406 C 237.417969 249.566406 237.621094 249.523438 237.816406 249.441406 C 238.011719 249.359375 238.1875 249.246094 238.335938 249.09375 C 238.488281 248.945312 238.601562 248.769531 238.683594 248.574219 C 238.765625 248.378906 238.808594 248.171875 238.808594 247.960938 L 238.808594 244.480469 C 238.808594 244.265625 238.765625 244.0625 238.683594 243.863281 C 238.601562 243.667969 238.488281 243.496094 238.335938 243.34375 C 238.1875 243.195312 238.011719 243.078125 237.816406 242.996094 C 237.621094 242.914062 237.417969 242.875 237.203125 242.875 Z M 137.433594 242.871094 " fill-opacity="1" fill-rule="nonzero"/></g><g fill="#231f20" fill-opacity="1"><g transform="translate(23.440193, 311.585488)"><g><path d="M 31.03125 0 L 23.109375 -11.4375 L 14.375 -11.4375 L 14.375 0 L 4.875 0 L 4.875 -41.078125 L 22.640625 -41.078125 C 26.285156 -41.078125 29.445312 -40.46875 32.125 -39.25 C 34.800781 -38.039062 36.863281 -36.320312 38.3125 -34.09375 C 39.757812 -31.863281 40.484375 -29.222656 40.484375 -26.171875 C 40.484375 -23.117188 39.75 -20.488281 38.28125 -18.28125 C 36.8125 -16.070312 34.726562 -14.378906 32.03125 -13.203125 L 41.25 0 Z M 30.859375 -26.171875 C 30.859375 -28.472656 30.113281 -30.238281 28.625 -31.46875 C 27.144531 -32.707031 24.976562 -33.328125 22.125 -33.328125 L 14.375 -33.328125 L 14.375 -19.015625 L 22.125 -19.015625 C 24.976562 -19.015625 27.144531 -19.640625 28.625 -20.890625 C 30.113281 -22.140625 30.859375 -23.898438 30.859375 -26.171875 Z M 30.859375 -26.171875 "/></g></g></g><g fill="#231f20" fill-opacity="1"><g transform="translate(70.313625, 311.585488)"><g><path d="M 4.875 -41.078125 L 14.375 -41.078125 L 14.375 0 L 4.875 0 Z M 4.875 -41.078125 "/></g></g></g><g fill="#231f20" fill-opacity="1"><g transform="translate(93.310804, 311.585488)"><g><path d="M 32.625 -21.1875 L 41.3125 -21.1875 L 41.3125 -4.515625 C 39.070312 -2.835938 36.484375 -1.546875 33.546875 -0.640625 C 30.617188 0.253906 27.671875 0.703125 24.703125 0.703125 C 20.441406 0.703125 16.609375 -0.203125 13.203125 -2.015625 C 9.796875 -3.835938 7.125 -6.363281 5.1875 -9.59375 C 3.25 -12.820312 2.28125 -16.46875 2.28125 -20.53125 C 2.28125 -24.601562 3.25 -28.25 5.1875 -31.46875 C 7.125 -34.695312 9.8125 -37.222656 13.25 -39.046875 C 16.695312 -40.867188 20.570312 -41.78125 24.875 -41.78125 C 28.476562 -41.78125 31.742188 -41.171875 34.671875 -39.953125 C 37.609375 -38.742188 40.070312 -36.984375 42.0625 -34.671875 L 35.96875 -29.046875 C 33.03125 -32.128906 29.488281 -33.671875 25.34375 -33.671875 C 22.726562 -33.671875 20.398438 -33.125 18.359375 -32.03125 C 16.328125 -30.9375 14.742188 -29.390625 13.609375 -27.390625 C 12.472656 -25.398438 11.90625 -23.113281 11.90625 -20.53125 C 11.90625 -17.988281 12.472656 -15.71875 13.609375 -13.71875 C 14.742188 -11.726562 16.316406 -10.175781 18.328125 -9.0625 C 20.347656 -7.945312 22.648438 -7.390625 25.234375 -7.390625 C 27.972656 -7.390625 30.4375 -7.976562 32.625 -9.15625 Z M 32.625 -21.1875 "/></g></g></g><g fill="#231f20" fill-opacity="1"><g transform="translate(142.296142, 311.585488)"><g><path d="M 35.03125 -21.359375 C 37.375 -20.609375 39.207031 -19.363281 40.53125 -17.625 C 41.863281 -15.882812 42.53125 -13.742188 42.53125 -11.203125 C 42.53125 -7.609375 41.128906 -4.84375 38.328125 -2.90625 C 35.535156 -0.96875 31.460938 0 26.109375 0 L 4.875 0 L 4.875 -41.078125 L 24.9375 -41.078125 C 29.945312 -41.078125 33.789062 -40.117188 36.46875 -38.203125 C 39.144531 -36.285156 40.484375 -33.679688 40.484375 -30.390625 C 40.484375 -28.398438 40.003906 -26.617188 39.046875 -25.046875 C 38.085938 -23.484375 36.75 -22.253906 35.03125 -21.359375 Z M 14.3125 -33.90625 L 14.3125 -24.234375 L 23.765625 -24.234375 C 26.109375 -24.234375 27.882812 -24.644531 29.09375 -25.46875 C 30.3125 -26.289062 30.921875 -27.5 30.921875 -29.09375 C 30.921875 -30.695312 30.3125 -31.898438 29.09375 -32.703125 C 27.882812 -33.503906 26.109375 -33.90625 23.765625 -33.90625 Z M 25.40625 -7.15625 C 27.90625 -7.15625 29.789062 -7.566406 31.0625 -8.390625 C 32.332031 -9.210938 32.96875 -10.484375 32.96875 -12.203125 C 32.96875 -15.609375 30.445312 -17.3125 25.40625 -17.3125 L 14.3125 -17.3125 L 14.3125 -7.15625 Z M 25.40625 -7.15625 "/></g></g></g><g fill="#231f20" fill-opacity="1"><g transform="translate(190.929501, 311.585488)"><g><path d="M 23.109375 0.703125 C 17.242188 0.703125 12.675781 -0.914062 9.40625 -4.15625 C 6.144531 -7.40625 4.515625 -12.046875 4.515625 -18.078125 L 4.515625 -41.078125 L 14.015625 -41.078125 L 14.015625 -18.421875 C 14.015625 -11.066406 17.066406 -7.390625 23.171875 -7.390625 C 26.148438 -7.390625 28.421875 -8.28125 29.984375 -10.0625 C 31.546875 -11.84375 32.328125 -14.628906 32.328125 -18.421875 L 32.328125 -41.078125 L 41.71875 -41.078125 L 41.71875 -18.078125 C 41.71875 -12.046875 40.082031 -7.40625 36.8125 -4.15625 C 33.550781 -0.914062 28.984375 0.703125 23.109375 0.703125 Z M 23.109375 0.703125 "/></g></g></g><g fill="#231f20" fill-opacity="1"><g transform="translate(240.912118, 311.585488)"><g><path d="M 4.875 -41.078125 L 14.375 -41.078125 L 14.375 0 L 4.875 0 Z M 4.875 -41.078125 "/></g></g></g><g fill="#231f20" fill-opacity="1"><g transform="translate(263.909294, 311.585488)"><g><path d="M 4.875 -41.078125 L 14.375 -41.078125 L 14.375 -7.75 L 34.96875 -7.75 L 34.96875 0 L 4.875 0 Z M 4.875 -41.078125 "/></g></g></g><g fill="#231f20" fill-opacity="1"><g transform="translate(303.097752, 311.585488)"><g><path d="M 4.875 -41.078125 L 23.53125 -41.078125 C 27.988281 -41.078125 31.925781 -40.222656 35.34375 -38.515625 C 38.769531 -36.816406 41.429688 -34.421875 43.328125 -31.328125 C 45.222656 -28.242188 46.171875 -24.644531 46.171875 -20.53125 C 46.171875 -16.425781 45.222656 -12.828125 43.328125 -9.734375 C 41.429688 -6.648438 38.769531 -4.253906 35.34375 -2.546875 C 31.925781 -0.847656 27.988281 0 23.53125 0 L 4.875 0 Z M 23.0625 -7.796875 C 27.164062 -7.796875 30.4375 -8.941406 32.875 -11.234375 C 35.320312 -13.523438 36.546875 -16.625 36.546875 -20.53125 C 36.546875 -24.445312 35.320312 -27.546875 32.875 -29.828125 C 30.4375 -32.117188 27.164062 -33.265625 23.0625 -33.265625 L 14.375 -33.265625 L 14.375 -7.796875 Z M 23.0625 -7.796875 "/></g></g></g></svg>